<?xml version="1.0" encoding="UTF-8" standalone="no"?>
<svg
   xmlns:dc="http://purl.org/dc/elements/1.1/"
   xmlns:cc="http://creativecommons.org/ns#"
   xmlns:rdf="http://www.w3.org/1999/02/22-rdf-syntax-ns#"
   xmlns:svg="http://www.w3.org/2000/svg"
   xmlns="http://www.w3.org/2000/svg"
   xmlns:sodipodi="http://sodipodi.sourceforge.net/DTD/sodipodi-0.dtd"
   xmlns:inkscape="http://www.inkscape.org/namespaces/inkscape"
   version="1.1"
   id="svg2"
   xml:space="preserve"
   width="340.16"
   height="207.88"
   viewBox="0 0 340.16 207.88"
   sodipodi:docname="logo-abbank-inkythuatso.ai"><metadata
     id="metadata8"><rdf:RDF><cc:Work
         rdf:about=""><dc:format>image/svg+xml</dc:format><dc:type
           rdf:resource="http://purl.org/dc/dcmitype/StillImage" /></cc:Work></rdf:RDF></metadata><defs
     id="defs6"><clipPath
       clipPathUnits="userSpaceOnUse"
       id="clipPath18"><path
         d="M 0,155.91 H 255.12 V 0 H 0 Z"
         id="path16" /></clipPath></defs><sodipodi:namedview
     pagecolor="#ffffff"
     bordercolor="#666666"
     borderopacity="1"
     objecttolerance="10"
     gridtolerance="10"
     guidetolerance="10"
     inkscape:pageopacity="0"
     inkscape:pageshadow="2"
     inkscape:window-width="640"
     inkscape:window-height="480"
     id="namedview4" /><g
     id="g10"
     inkscape:groupmode="layer"
     inkscape:label="logo-abbank-inkythuatso"
     transform="matrix(1.3333333,0,0,-1.3333333,0,207.88)"><g
       id="g12"><g
         id="g14"
         clip-path="url(#clipPath18)"><g
           id="g20"
           transform="translate(193.8008,90.5713)"><path
             d="m 0,0 h 8.145 v -8.868 c 0.98,-1.919 3.216,-1.656 4.865,0.175 L 22.539,0 h 9.893 L 18.578,-12.634 32.912,-25.261 H 22.854 c -3.633,3.331 -7.459,6.403 -11.088,9.733 -2.049,1.151 -3.596,0.329 -3.524,-1.938 0.018,-0.526 -0.006,-1.086 -0.006,-1.668 v -6.19 L 0,-25.348 Z m -38.984,0.128 h 14.107 c 3.705,-5.366 7.414,-10.734 11.123,-16.104 1.15,-2.104 2.348,-2.586 2.754,-0.982 l -0.127,4.458 v 12.489 l 8.26,-0.015 -0.022,-25.203 -13.832,-0.014 c -4.34,5.883 -8.031,11.272 -12.371,17.153 -0.84,1.452 -1.945,0.621 -1.947,-0.382 -0.002,-0.819 -0.016,-1.886 0.039,-2.985 V -25.36 l -7.984,0.131 v 0.003 l -0.807,-0.003 c -0.432,-0.003 -0.826,0.019 -1.195,0.062 l -5.866,-0.023 c -3.554,6.431 -7.074,12.862 -10.628,19.294 -0.633,0.352 -1.145,0.292 -1.493,-0.375 l -4.785,-8.574 7.645,-0.009 3,-5.55 c -4.125,-0.009 -7.912,-0.016 -12.039,-0.024 -2.136,0.081 -3.004,-2.58 -4.202,-4.798 h -8.713 l 13.805,25.21 12.512,0.009 10.379,-19.194 c 0.326,-0.487 0.814,-1.468 1.191,-1.635 0.51,-0.151 0.866,-0.014 1.196,0.324 z m -63.814,-10.043 c 2.525,0 11.512,-0.006 14.084,-0.003 0.016,0 0.033,0.006 0.048,0.006 3.171,-0.078 2.623,3.427 1.012,3.734 -0.189,0.036 -0.259,0.083 -0.531,0.084 -3.396,0.022 -12.247,-0.01 -14.61,-0.01 z m 0,-9.234 c 2.525,0 12.446,-0.004 15.016,-0.003 0.017,0 0.038,0.006 0.052,0.006 3.17,-0.076 2.475,3.776 0.866,4.079 -0.187,0.035 -0.116,-0.055 -0.388,-0.054 -3.396,0.018 -13.323,0.128 -15.686,0.128 z m -8.235,19.117 h 21.062 c 1.863,0 7.424,0.368 10.204,-1.865 1.086,-0.874 1.442,-2.451 1.442,-4.078 0,-1.395 -0.109,-2.831 -0.436,-3.8 -0.549,-1.618 -1.589,-2.373 -2.829,-2.652 2.362,-0.397 4.63,-1.673 4.423,-7.124 -0.277,-7.222 -11.088,-5.676 -14.369,-5.617 l -19.497,0.348 z m -25.35,-9.883 c 2.525,0 8.495,-0.003 11.068,-0.003 0.012,0 0.032,0.006 0.047,0.006 3.172,-0.077 2.623,3.429 1.01,3.734 -0.188,0.036 -0.258,0.083 -0.531,0.084 -3.395,0.02 -11.382,-0.01 -13.745,-0.01 z m -22.249,4.019 c -0.631,0.352 -1.145,0.292 -1.49,-0.375 l -4.787,-8.574 7.985,-0.009 3.002,-5.55 c -4.127,-0.009 -8.253,-0.016 -12.381,-0.024 -2.136,0.081 -3.004,-2.58 -4.201,-4.798 h -8.712 l 13.805,25.21 12.149,-0.086 10.49,-19.116 c 5.67,0.174 16.267,0.222 19.419,0.232 2.094,0.189 1.639,3.768 -0.005,3.973 l -17.801,-0.015 -8.235,14.996 h 22.495 c 1.162,0 4.621,0.066 7.133,-0.03 0.105,-0.003 0.207,-0.032 0.306,-0.048 1.393,-0.244 2.071,-0.644 2.928,-1.543 0.977,-1.029 1.283,-2.695 1.283,-4.322 0,-1.395 -0.11,-2.831 -0.439,-3.8 -0.55,-1.618 -1.587,-2.373 -2.828,-2.652 1.935,-0.177 3.869,-0.853 4.175,-4.587 0.065,-0.818 0.185,-1.759 0.14,-2.866 -0.08,-1.955 -0.882,-3.719 -2.428,-4.334 -3.549,-1.414 -9.532,-0.943 -11.833,-0.954 l -12.48,-0.061 c -0.43,-0.003 -0.826,0.019 -1.194,0.062 l -5.866,-0.023 c -3.556,6.431 -7.074,12.862 -10.63,19.294"
             style="fill:#00a9ac;fill-opacity:1;fill-rule:nonzero;stroke:none"
             id="path22" /></g><g
           id="g24"
           transform="translate(231.9102,90.5713)"><path
             d="M 0,0 8.111,-0.007 -5.805,-12.636 8.625,-25.241 0.48,-25.26 -13.938,-12.705 Z"
             style="fill:#df762e;fill-opacity:1;fill-rule:nonzero;stroke:none"
             id="path26" /></g></g></g></g></svg>
