<?xml version="1.0" encoding="UTF-8"?>
<svg id="Layer_2" data-name="Layer 2" xmlns="http://www.w3.org/2000/svg" viewBox="0 0 270.68 116.45">
  <defs>
    <style>
      .cls-1 {
        fill: #ffc629;
      }

      .cls-1, .cls-2 {
        stroke-width: 0px;
      }

      .cls-2 {
        fill: #006b68;
      }
    </style>
  </defs>
  <g id="Layer_1-2" data-name="Layer 1">
    <path class="cls-1" d="m266.78,37.2c-.8-1.37-1.92-2.41-3.08-3.46h0c-3.72-3.33-8.38-5.7-13.13-6.78-.35-.08-.58-.4-.54-.76.5-4.56-.05-9.23-1.69-13.59-.56.26-1.29.64-2.14,1.18l-.06.04c1.66,4.62,2.01,9.57,1.08,14.28-.08.42.2.82.62.88,6.45.91,12.56,4.24,16.83,9.29-3.71,3.19-8.14,5.55-12.87,6.71-.34.08-.57.39-.55.74.29,5.64-1,11.3-3.66,16.27,16.16,5.78,28.37-10.66,19.19-24.81"/>
    <path class="cls-1" d="m247.75,8.66c-5.62,2.44-10.57,6.8-13.64,12.01-.18.31-.56.44-.89.29-4.09-1.86-8.75-2.8-13.39-2.59.05.62.17,1.43.39,2.42v.06c4.93-.16,9.74,1.04,13.93,3.38.37.21.84.06,1.03-.33,2.83-5.85,7.92-10.62,14-13.16l.34.84c1.72,4.29,2.4,8.94,2.09,13.5-.02.34.2.65.53.75,4.32,1.17,8.33,3.26,11.78,6.15h0c.87.75,1.73,1.53,2.54,2.37,1.27-1.58,2.21-3.59,2.73-5.42,4.94-13.25-8.72-25.71-21.45-20.27"/>
    <path class="cls-1" d="m243.95,57.31l.04-.09c-.21-.14-.42-.28-.62-.43-3.81-2.78-6.72-6.36-8.65-10.5-.18-.38-.65-.54-1.02-.34-5.74,3.04-12.67,3.99-19.07,2.38,1.14-4.77,3.31-9.26,6.46-13.01.23-.27.23-.65.01-.92-3.54-4.38-5.82-9.72-6.58-15.35v-.05c-1.64.43-3.33,1.25-4.69,2.16h0c-15.57,10.25-6.64,31.34,11.17,30.43,4.1,0,8.06-.84,11.67-2.39.33-.14.73-.02.91.3,2.21,3.91,5.42,7.4,9.28,9.96.32-.53.7-1.23,1.09-2.14"/>
    <path class="cls-1" d="m260.83,36.34l-.04-.04c-3.88,3.02-8.48,4.86-13.24,5.45-.42.05-.71.44-.64.86,1.12,6.39-.09,13.32-3.65,18.88l-.74-.48c-3.93-2.51-7.16-5.79-9.59-9.69-.18-.29-.55-.42-.87-.29-5.24,2.01-11.07,2.54-16.61,1.54-.82,15.87,17.56,24.07,28.38,12,4.71-5.1,6.42-13.18,5.83-19.97-.03-.36.22-.7.58-.77,4.42-.91,8.75-2.9,12.38-5.8-.42-.46-1.01-1.03-1.8-1.69"/>
    <path class="cls-1" d="m244.14,5.46s0,0-.01-.01c-10.99-12.05-30.2-2.54-28.16,13.3,0,0,0,0,0,0,.73,5.74,3.3,11.38,7.06,15.65.24.27.23.68,0,.95-3.02,3.33-5.35,7.48-6.59,11.95.6.14,1.4.28,2.38.38h.09c1.37-4.72,3.99-8.93,7.52-12.22.31-.29.31-.78,0-1.07-.41-.4-.8-.81-1.18-1.23-3.99-4.33-6.53-10.22-6.99-16.19,4.85-.41,9.88.3,14.36,2.13.32.13.69.02.88-.28,3.06-4.7,7.42-8.53,12.53-11-.54-.83-1.2-1.63-1.9-2.36"/>
    <path class="cls-2" d="m0,83.58V20.07c0-1.53,1.24-2.77,2.77-2.77h27.91c14.01,0,20.42,7.69,20.42,16.57,0,8.14-4.08,14.17-11.81,16.08-.1.02-.1.16,0,.18,8.3,1.73,14.08,8.55,14.08,17.37,0,10.36-7.5,18.84-21.41,18.84H2.77c-1.53,0-2.77-1.24-2.77-2.77m27.52-37.07c8.48,0,11.34-4.73,11.34-10.26s-2.86-9.57-11.44-9.57h-15.49v19.83h15.59Zm.89,30.47c9.47,0,13.02-4.73,13.02-10.95s-3.85-11.34-13.02-11.34H11.94v22.29h16.47Z"/>
    <path class="cls-2" d="m57.77,83.58V17.31h9.17c1.53,0,2.77,1.24,2.77,2.77v66.27h-9.17c-1.53,0-2.77-1.24-2.77-2.77"/>
    <path class="cls-2" d="m76.43,86.34V20.07c0-1.53,1.24-2.77,2.77-2.77h26.23c18.25,0,29.59,13.02,29.59,34.22s-10.85,34.81-29.1,34.81h-29.5Zm26.93-9.37c12.83,0,19.23-8.58,19.23-25.25s-6.71-25.05-19.53-25.05h-14.7v50.3h14.99Z"/>
    <path class="cls-2" d="m172.17,86.34h-10.45c-4.56,0-6.35-1.45-7.85-5.6l-21.85-63.44h9.94c1.73.06,3.32,1.12,3.93,2.83l16.61,49.54c.59,1.97,1.19,4.14,1.68,6.41.4-2.17.99-4.34,1.68-6.41l15.6-46.27c1.52-4.18,4.46-6.1,8.02-6.1h11.91c.16.01.31.11.35.28.25.92-.42,1.5-1.21,2.03-1.17.8-1.98,1.17-3.05,1.98-2.88,2.16-4.56,5.66-5.83,8.85-.54,1.34-1.02,2.73-1.5,4.1l-17.98,51.79Z"/>
    <polygon class="cls-2" points="5.09 104.11 5.09 110.48 5.05 110.49 2 104.11 .04 104.11 .04 114.1 2 114.1 2 107.72 2.04 107.71 5.09 114.1 7.04 114.1 7.04 104.11 5.09 104.11"/>
    <path class="cls-2" d="m14.61,112.62c-.27.43-.67.81-1.21,1.13-.54.33-1.22.49-2.05.49-1.07,0-1.93-.32-2.58-.94-.65-.63-.97-1.52-.97-2.68v-3.04c0-1.15.31-2.04.94-2.67.62-.63,1.45-.95,2.48-.95,1.11,0,1.94.27,2.49.81.55.54.84,1.32.86,2.33v.04h-1.84c-.01-.56-.14-.97-.37-1.23-.23-.26-.59-.39-1.08-.39s-.85.17-1.12.5c-.27.34-.41.85-.41,1.53v3.06c0,.7.14,1.22.41,1.56.27.34.67.5,1.19.5.39,0,.68-.05.86-.16.19-.11.34-.26.46-.47v-1.79h-1.32v-1.37h3.27v3.72Z"/>
    <path class="cls-2" d="m20.02,111.96h-2.63l-.54,2.13h-1.97l2.81-9.99h2.03l2.81,9.99h-1.97l-.54-2.13Zm.99-8.93v.15h-1.52l-.78-.92-.77.92h-1.49v-.17l1.71-1.63h1.09l1.76,1.65Zm-3.22,7.38h1.84l-.9-3.53h-.04l-.9,3.53Z"/>
    <polygon class="cls-2" points="29.73 114.1 27.79 114.1 24.74 107.71 24.7 107.73 24.7 114.1 22.74 114.1 22.74 104.11 24.7 104.11 27.75 110.49 27.79 110.47 27.79 104.11 29.73 104.11 29.73 114.1"/>
    <polygon class="cls-2" points="40.22 114.1 38.27 114.1 38.27 109.96 35.17 109.96 35.17 114.1 33.21 114.1 33.21 104.11 35.17 104.11 35.17 108.41 38.27 108.41 38.27 104.11 40.22 104.11 40.22 114.1"/>
    <path class="cls-2" d="m45.78,111.96h-2.63l-.54,2.13h-1.97l2.82-9.99h2.03l2.81,9.99h-1.97l-.54-2.13Zm-.32-8.57h-1.58s-1.69-1.78-1.69-1.78l.02-.04h2.05l1.2,1.82Zm-1.92,7.01h1.84l-.9-3.53h-.04l-.9,3.53Z"/>
    <polygon class="cls-2" points="55.5 114.1 53.55 114.1 50.5 107.71 50.46 107.73 50.46 114.1 48.5 114.1 48.5 104.11 50.46 104.11 53.51 110.49 53.55 110.47 53.55 104.11 55.5 104.11 55.5 114.1"/>
    <path class="cls-2" d="m63.07,112.62c-.27.43-.68.81-1.21,1.13-.54.33-1.22.49-2.05.49-1.07,0-1.93-.32-2.58-.94-.65-.63-.97-1.52-.97-2.68v-3.04c0-1.15.31-2.04.94-2.67.62-.63,1.45-.95,2.48-.95,1.11,0,1.94.27,2.49.81.55.54.84,1.32.87,2.33v.04h-1.84c-.01-.56-.14-.97-.37-1.23-.24-.26-.6-.39-1.08-.39s-.85.17-1.12.5c-.27.34-.4.85-.4,1.53v3.06c0,.7.13,1.22.41,1.56.27.34.67.5,1.19.5.39,0,.68-.05.86-.16.19-.11.34-.26.46-.47v-1.79h-1.32v-1.37h3.26v3.72Z"/>
    <polygon class="cls-2" points="72.38 105.67 70.13 105.67 70.13 114.1 68.18 114.1 68.18 105.67 65.95 105.67 65.95 104.11 72.38 104.11 72.38 105.67"/>
    <polygon class="cls-2" points="75.26 104.11 77.05 111.44 77.09 111.44 78.9 104.11 81.44 104.11 81.44 114.1 79.5 114.1 79.5 111.2 79.67 107.31 79.63 107.31 77.72 114.1 76.42 114.1 74.54 107.36 74.5 107.37 74.67 111.2 74.67 114.1 72.73 114.1 72.73 104.11 75.26 104.11"/>
    <path class="cls-2" d="m88.62,110.88l.02.04c0,1.1-.25,1.93-.78,2.48-.53.56-1.31.84-2.34.84s-1.86-.32-2.48-.95c-.62-.64-.93-1.53-.93-2.69v-2.98c0-1.16.3-2.05.89-2.69.6-.64,1.4-.96,2.4-.96,1.06,0,1.86.29,2.4.85.54.57.82,1.4.84,2.52l-.02.04h-1.88c.03-.66-.06-1.13-.27-1.42-.21-.29-.56-.43-1.08-.43-.44,0-.78.17-1.01.51-.23.34-.35.86-.35,1.56v3c0,.7.12,1.23.38,1.57.25.34.61.51,1.09.51s.8-.13.98-.41c.19-.27.27-.74.24-1.4h1.88Z"/>
    <path class="cls-2" d="m91.21,110.51v3.59h-1.96v-9.99h3.47c1,0,1.78.29,2.36.88.58.59.87,1.36.87,2.32s-.29,1.73-.87,2.32c-.58.59-1.36.88-2.36.88h-1.52Zm0-1.56h1.52c.42,0,.73-.15.95-.46.22-.31.33-.7.33-1.17s-.11-.87-.33-1.19c-.22-.31-.54-.47-.96-.47h-1.52v3.29Z"/>
    <path class="cls-2" d="m99.37,114.1v-4.49h-.75v-1.2h.75v-4.3h3.02c1.02,0,1.87.39,2.54,1.17.67.78,1,1.77,1,2.99v1.68c0,1.22-.33,2.22-1,2.99-.67.77-1.52,1.16-2.54,1.16h-3.02Zm3.24-4.49h-1.28v2.94h.95c.54,0,.96-.24,1.26-.71.3-.47.44-1.1.44-1.89v-1.7c0-.78-.15-1.4-.44-1.88-.29-.47-.71-.71-1.26-.71h-.95v2.74h1.28v1.2Z"/>
    <path class="cls-2" d="m108.82,110.41l.9-3.53h.04l.9,3.53h-1.84Zm1.94-6.3h-2.03l-2.81,9.99h1.97l.54-2.13h2.63l.54,2.13h1.97l-2.81-9.99Z"/>
    <polygon class="cls-2" points="112.29 103.22 112.28 103.27 110.57 103.27 109.73 102.28 108.9 103.27 107.19 103.27 107.17 103.22 108.94 101.52 110.53 101.52 112.29 103.22"/>
    <polygon class="cls-2" points="114.08 102.12 112.75 102.12 111.47 100.28 113.21 100.28 114.08 102.12"/>
    <path class="cls-2" d="m120.33,104.11v6.8c0,1.07-.31,1.89-.94,2.47-.62.58-1.44.87-2.45.87s-1.83-.29-2.45-.87c-.62-.58-.94-1.4-.94-2.46v-6.8h1.95v6.8c0,.61.12,1.06.38,1.34.25.29.61.43,1.06.43s.83-.13,1.08-.41c.25-.28.37-.73.37-1.37v-6.8h1.94Z"/>
    <polygon class="cls-2" points="129.56 105.67 127.31 105.67 127.31 114.1 125.36 114.1 125.36 105.67 123.13 105.67 123.13 104.11 129.56 104.11 129.56 105.67"/>
    <path class="cls-2" d="m136.61,104.11v1.3h.04c.37-.05.63-.27.77-.66.14-.39.21-.95.21-1.69h1.37c0,1.11-.19,1.97-.57,2.58-.38.61-.99.96-1.83,1.05v4.21c0,1.07-.31,1.89-.94,2.47-.62.58-1.44.87-2.45.87s-1.83-.29-2.45-.87c-.62-.58-.94-1.4-.94-2.46v-6.8h1.95v6.8c0,.61.13,1.06.38,1.34.25.29.61.43,1.07.43s.83-.13,1.08-.41c.25-.28.37-.73.37-1.37v-6.8h1.94Z"/>
    <polygon class="cls-2" points="143.59 111.55 143.67 111.93 143.71 111.93 143.79 111.57 145.46 104.11 147.51 104.11 144.71 114.1 142.68 114.1 139.89 104.11 141.94 104.11 143.59 111.55"/>
    <path class="cls-2" d="m151.75,111.96h-2.63l-.54,2.13h-1.97l2.81-9.99h2.03l2.81,9.99h-1.97l-.54-2.13Zm-.32-8.57h-1.58s-1.69-1.78-1.69-1.78l.02-.04h2.04l1.2,1.82Zm-1.92,7.01h1.84l-.9-3.53h-.04l-.9,3.53Z"/>
    <path class="cls-2" d="m158.94,110.51v3.59h-1.96v-9.99h3.47c1,0,1.78.29,2.36.88.58.59.86,1.36.86,2.32s-.29,1.73-.87,2.32c-.58.59-1.37.88-2.36.88h-1.52Zm0-1.56h1.52c.42,0,.73-.15.95-.46.22-.31.33-.7.33-1.17s-.11-.87-.32-1.19c-.22-.31-.54-.47-.96-.47h-1.52v3.29Z"/>
    <polygon class="cls-2" points="171.38 114.1 169.43 114.1 169.43 109.96 166.33 109.96 166.33 114.1 164.37 114.1 164.37 104.11 166.33 104.11 166.33 108.41 169.43 108.41 169.43 104.11 171.38 104.11 171.38 114.1"/>
    <path class="cls-2" d="m176.94,111.96h-2.63l-.54,2.13h-1.97l2.81-9.99h2.03l2.81,9.99h-1.97l-.54-2.13Zm-1.1-10.39h2.05l.02.04-1.71,1.78h-1.57s1.21-1.82,1.21-1.82Zm-1.14,8.83h1.84l-.9-3.53h-.04l-.9,3.53Z"/>
    <polygon class="cls-2" points="184.66 105.67 182.41 105.67 182.41 114.1 180.46 114.1 180.46 105.67 178.22 105.67 178.22 104.11 184.66 104.11 184.66 105.67"/>
    <polygon class="cls-2" points="193.44 105.67 191.18 105.67 191.18 114.1 189.24 114.1 189.24 105.67 187 105.67 187 104.11 193.44 104.11 193.44 105.67"/>
    <path class="cls-2" d="m195.77,110.13v3.97h-1.95v-9.98h3.26c.98,0,1.75.26,2.31.78.56.52.84,1.24.84,2.16,0,.52-.12.97-.35,1.35-.23.38-.57.68-1.02.91.51.17.88.46,1.11.86.23.4.34.91.34,1.51v.71c0,.28.03.57.1.88.06.31.18.54.34.69v.14h-2.02c-.16-.15-.26-.38-.3-.71-.04-.33-.06-.66-.06-1.01v-.68c0-.5-.1-.89-.3-1.16-.21-.28-.5-.41-.88-.41h-1.41Zm0-1.56h1.3c.4,0,.7-.12.91-.36.2-.24.31-.59.31-1.04s-.1-.82-.31-1.09c-.21-.27-.51-.41-.9-.41h-1.31v2.9Z"/>
    <rect class="cls-2" x="201.33" y="104.11" width="1.94" height="9.99"/>
    <path class="cls-2" d="m209.64,109.71h-3.36v2.83h3.95v1.56h-5.9v-9.99h5.89v1.56h-3.93v2.49h3.36v1.56Zm-.01-6.28l-.02.04h-1.69l-.86-1.01-.86,1.01h-1.68v-.04s1.74-1.71,1.74-1.71h1.62l1.75,1.71Zm-.53-.87l-.1-.75c.23-.01.4-.05.51-.11.1-.06.16-.15.16-.28,0-.15-.06-.26-.17-.32-.11-.07-.27-.1-.48-.1l.04-.76c.65,0,1.14.1,1.48.3.34.2.51.47.51.82,0,.25-.07.45-.2.58-.14.14-.3.23-.5.26v.36h-1.23Z"/>
    <polygon class="cls-2" points="217.67 114.1 215.73 114.1 212.67 107.71 212.63 107.73 212.63 114.1 210.68 114.1 210.68 104.11 212.63 104.11 215.69 110.49 215.73 110.47 215.73 104.11 217.67 104.11 217.67 114.1"/>
    <polygon class="cls-2" points="224.16 111.55 224.24 111.93 224.28 111.93 224.35 111.57 226.02 104.11 228.07 104.11 225.28 114.1 223.25 114.1 220.46 104.11 222.51 104.11 224.16 111.55"/>
    <rect class="cls-2" x="228.44" y="104.11" width="1.94" height="9.99"/>
    <path class="cls-2" d="m233.66,101.39l-1.72,1.63v.17h1.49l.77-.92.78.92h1.52v-.16l-1.76-1.64h-1.09Zm-2.22,2.72v9.99h5.9v-1.56h-3.95v-2.83h3.36v-1.56h-3.36v-2.49h3.93v-1.56h-5.89Zm1.69,12.34h2.17v-1.65h-2.17v1.65Z"/>
    <polygon class="cls-2" points="243.8 105.67 241.56 105.67 241.56 114.1 239.61 114.1 239.61 105.67 237.37 105.67 237.37 104.11 243.8 104.11 243.8 105.67"/>
    <polygon class="cls-2" points="253.69 114.1 251.75 114.1 248.7 107.71 248.66 107.73 248.66 114.1 246.7 114.1 246.7 104.11 248.66 104.11 251.71 110.49 251.75 110.47 251.75 104.11 253.69 104.11 253.69 114.1"/>
    <path class="cls-2" d="m259.27,111.96h-2.63l-.54,2.13h-1.97l2.81-9.99h2.03l2.81,9.99h-1.97l-.54-2.13Zm-2.24-1.56h1.84l-.9-3.53h-.04l-.9,3.53Z"/>
    <polygon class="cls-2" points="268.13 104.11 266.32 111.44 266.28 111.44 264.49 104.11 261.96 104.11 261.96 114.1 263.9 114.1 263.9 111.2 263.73 107.37 263.77 107.36 265.66 114.1 266.96 114.1 268.86 107.31 268.91 107.31 268.74 111.2 268.74 114.1 270.68 114.1 270.68 104.11 268.13 104.11"/>
  </g>
</svg>