<?xml version="1.0" encoding="UTF-8"?>
<svg id="Layer_2" data-name="Layer 2" xmlns="http://www.w3.org/2000/svg" viewBox="0 0 181.9 52.15">
  <defs>
    <style>
      .cls-1 {
        stroke-width: 0px;
      }
    </style>
  </defs>
  <g id="Layer_1-2" data-name="Layer 1">
    <path class="cls-1" d="m62.22,24.04V1.99h8.08c1.74,0,2.87.27,3.84.71,2.23,1.07,3.22,3.14,3.22,4.99,0,2.1-.86,3.51-2.63,4.58v.06c2.53.62,4.07,2.37,4.07,5.04,0,3.01-1.8,5.26-4.86,6.19-1.14.33-2.33.48-4.23.48h-7.49m9.88-18.23c-.49-.24-1.1-.41-2.05-.41h-4.07v5.75h3.84c1.18,0,1.91-.2,2.45-.5.88-.51,1.31-1.33,1.31-2.39s-.51-1.99-1.47-2.45m1.17,9.12c-.54-.25-1.2-.38-2.49-.38h-4.81v6.1h4.55c1.35,0,2.14-.17,2.78-.49,1.11-.55,1.65-1.48,1.65-2.74,0-1.13-.61-2.03-1.68-2.48"/>
    <rect class="cls-1" x="100.84" y="1.99" width="3.8" height="22.05"/>
    <rect class="cls-1" x="128.28" y="1.99" width="3.76" height="22.05"/>
    <path class="cls-1" d="m144.25,1.81c2.36,0,4.79.56,6.12,1.22l-.08,3.65c-1.9-.93-3.86-1.6-6.15-1.6-2.06,0-3.85.7-3.85,2.42,0,4.49,11.34,2.67,11.34,10.13,0,4.14-3.46,6.74-8.53,6.74-3.45,0-5.81-.97-7.46-1.96l1.58-3.1c1.33.84,3.49,1.77,6.02,1.77,2.27,0,4.36-.9,4.36-2.9,0-4.7-11.22-2.63-11.22-10.15,0-4.05,3.18-6.22,7.86-6.22"/>
    <polyline class="cls-1" points="169.5 24.04 169.5 14.54 158.81 14.54 158.81 24.04 155.04 24.04 155.04 1.99 158.81 1.99 158.81 11.03 169.5 11.03 169.5 1.99 173.3 1.99 173.3 24.04 169.5 24.04"/>
    <path class="cls-1" d="m70.58,27.92c2.37,0,4.25.47,6.1,1.31l-1.11,3.18c-1.07-.49-2.51-1.09-4.61-1.09-4.15,0-6.77,3.53-6.77,7.85s2.45,7.89,6.77,7.89c2.1,0,3.54-.61,4.61-1.09l1.11,3.18c-1.85.87-3.73,1.34-6.1,1.34-6.61,0-10.36-4.62-10.36-11.24,0-6.19,3.75-11.32,10.36-11.32"/>
    <path class="cls-1" d="m153.2,27.92c2.44,0,4.27.47,6.14,1.31l-1.14,3.18c-1.06-.49-2.45-1.09-4.59-1.09-4.16,0-6.79,3.53-6.79,7.85s2.47,7.89,6.79,7.89c2.14,0,3.54-.61,4.59-1.09l1.14,3.18c-1.87.87-3.7,1.34-6.14,1.34-6.58,0-10.34-4.62-10.34-11.24,0-6.19,3.76-11.32,10.34-11.32"/>
    <path class="cls-1" d="m98.28,39.1c0,6.62-4.23,11.37-10.46,11.37s-10.42-4.59-10.42-11.21,4.24-11.35,10.42-11.35,10.46,4.56,10.46,11.18m-4,.06c0-4.83-2.72-7.88-6.46-7.88s-6.4,3.05-6.4,7.91,2.72,7.89,6.4,7.89,6.46-3.06,6.46-7.92"/>
    <path class="cls-1" d="m100.81,41.82v-13.69h3.8v13.83c0,3.7,1.96,5.07,5.08,5.07s5.12-1.37,5.12-5.07v-13.83h3.81v13.69c0,6-3.43,8.66-8.99,8.66s-8.82-2.66-8.82-8.66"/>
    <path class="cls-1" d="m125.72,34.08h-.05c.05.73.1,1.94.1,2.97v13.12h-3.8v-22.03h4.1l10.2,15h.06c-.06-.77-.09-1.93-.09-2.96v-12.04h3.76v22.03h-3.33l-10.95-16.08"/>
    <rect class="cls-1" x="162.28" y="28.13" width="3.79" height="22.03"/>
    <polyline class="cls-1" points="169.5 50.16 169.5 28.13 173.3 28.13 173.3 46.72 181.9 46.72 181.9 50.16 169.5 50.16"/>
    <polyline class="cls-1" points="125.37 2.01 107.49 2.01 107.49 5.43 114.56 5.43 114.56 24.04 118.34 24.04 118.34 5.43 125.37 5.43 125.37 2.01"/>
    <path class="cls-1" d="m94.05,24.04c-3.19-6.66-4.03-8.52-5.36-8.52h-3.52v8.52h-3.76V2.01h7.44c5.65,0,7.86,2.98,7.86,6.36,0,2.93-1.74,4.93-4.1,5.66v.03c1,.56,2.06,2.62,5.75,9.98h-4.31m-4.95-18.64h-3.93v6.69h3.77c2.68,0,3.94-1.4,3.94-3.4,0-1.79-1.16-3.3-3.78-3.3"/>
    <path class="cls-1" d="m25.2,12.57c0,6.95-5.66,12.61-12.63,12.61S0,19.52,0,12.57,5.62,0,12.57,0s12.63,5.66,12.63,12.57"/>
    <path class="cls-1" d="m52.17,12.57c0,6.95-5.65,12.61-12.6,12.61s-12.62-5.66-12.62-12.61S32.6,0,39.57,0s12.6,5.66,12.6,12.57"/>
    <path class="cls-1" d="m25.2,39.54c0,6.97-5.66,12.61-12.63,12.61S0,46.51,0,39.54s5.62-12.61,12.57-12.61,12.63,5.66,12.63,12.61"/>
    <path class="cls-1" d="m52.17,39.54c0,6.97-5.65,12.61-12.6,12.61s-12.62-5.64-12.62-12.61,5.65-12.61,12.62-12.61,12.6,5.66,12.6,12.61"/>
  </g>
</svg>