<?xml version="1.0" encoding="utf-8"?>
<!-- Generator: Adobe Illustrator 19.2.1, SVG Export Plug-In . SVG Version: 6.00 Build 0)  -->
<svg version="1.1" id="layer" xmlns="http://www.w3.org/2000/svg" xmlns:xlink="http://www.w3.org/1999/xlink" x="0px" y="0px"
	 viewBox="0 0 652 652" style="enable-background:new 0 0 652 652;" xml:space="preserve">
<style type="text/css">
	.st0{fill:#FF5111;}
</style>
<path d="M221,324.1h-14.8v31.9c0,5.8,3.4,7,8.6,7c2,0,4.1-0.3,6.2-0.3v17.6c-4.4,0.1-8.7,0.7-13.1,0.7c-20.5,0-25.7-5.9-25.7-25.8
	v-31.2h-12.1V308h12.1v-23h24v23H221L221,324.1L221,324.1z M341.8,324.1h-14.8v31.9c0,5.8,3.4,7,8.6,7c2,0,4.1-0.3,6.2-0.3v17.6
	c-4.4,0.1-8.7,0.7-13.1,0.7c-20.5,0-25.7-5.9-25.7-25.8v-31.2h-12.1V308H303v-23h24v23h14.8L341.8,324.1L341.8,324.1z M93.2,349.9
	c0,21.4-11,32.2-33.5,32.2c-25.3,0-33.4-14.6-33.4-35.9v-4.1h23.4v8.8c0,6.3,3.5,9.8,9.6,9.8c5.8,0,9-3.2,9-12.4v-63.7h24.9
	L93.2,349.9L93.2,349.9z M119.6,349.5c0.4,9.9,6.1,16.5,16.2,16.5c5.7,0,11.3-2.7,13.6-8h22.2c-4.3,16.8-19.8,24-36.1,24
	c-23.6,0-39.7-14.3-39.7-38.6c0-22.2,17.8-38.2,39.2-38.2c26,0,39,19.6,37.9,44.2L119.6,349.5L119.6,349.5z M149.1,336.2
	c-0.4-8.1-6.2-14.8-14.1-14.8c-8.4,0-14,6-15.4,14.8L149.1,336.2L149.1,336.2z M244.4,356.2c0,3.6,1.5,6.3,3.9,8.1
	c2.2,1.7,5.5,2.5,8.8,2.5c4.6,0,11.2-2,11.2-7.7c0-5.6-7.4-6.7-11.6-7.7c-14.9-3.8-33.6-4.2-33.6-23.7c0-17.4,18.8-22.2,33.1-22.2
	c15.9,0,32.5,4.6,33.3,23.4h-21.9c0-3.1-1.1-5-3.1-6.3c-1.9-1.2-4.6-1.8-7.5-1.8c-3.9,0-10.2,0.4-10.2,5.5c0,6.8,15.9,8.1,26.8,10.5
	c14.6,2.9,18.4,13.5,18.4,19.5c0,19.4-18.4,25.8-34.7,25.8c-17.2,0-34.7-5.7-35.4-25.9L244.4,356.2L244.4,356.2z M346.1,330.1
	c0.4-9.5,4.9-15.6,11.3-19.3c6.4-3.6,14.8-5,23-5c17.1,0,33.7,3.8,33.7,24.2v31.6c0,6.1,0,12.8,2.8,18.5H393
	c-0.8-2.2-1.1-4.5-1.4-6.8c-6.1,6.4-15.2,8.9-23.8,8.9c-13.8,0-24.6-6.9-24.6-21.8c0-23.5,25.6-21.7,42-25c4-0.8,6.3-2.2,6.3-6.7
	c0-5.4-6.5-7.5-11.4-7.5c-6.5,0-10.7,2.9-11.8,9.1L346.1,330.1L346.1,330.1z M376.7,367.5c11.3,0,15-6.4,14.5-21.3
	c-3.3,2.1-9.5,2.5-14.6,3.9c-5.3,1.3-9.7,3.5-9.7,9.2C366.8,365.2,371.4,367.5,376.7,367.5L376.7,367.5z M450.4,310.1
	c-3.6,2.4-6.4,5.8-8.1,10.3H442v-12.7h-23v72.4h23.7v-35.8c0-9.1,6.1-17.2,17.8-17.2c2.7,0,5.2,0.4,7.7,1.1L450.4,310.1L450.4,310.1
	z"/>
<path class="st0" d="M554.7,243.3l3.1,49.6h68.6l-65.7,43.5l14.5,71.7l-55.8-48.5l-75.1,39l44.8-61.4l-42.5-44.2h68.8L554.7,243.3z"
	/>
</svg>
