<?xml version="1.0" encoding="utf-8"?>
<!-- Generator: Adobe Illustrator 27.8.1, SVG Export Plug-In . SVG Version: 6.00 Build 0)  -->
<svg version="1.2" baseProfile="tiny" id="Layer_1" xmlns="http://www.w3.org/2000/svg" xmlns:xlink="http://www.w3.org/1999/xlink"
	 x="0px" y="0px" viewBox="0 0 150 150" overflow="visible" xml:space="preserve">
<g>
	<path fill="#D10101" d="M33.6,75.2c0,5.2-4.1,9.2-9.3,9.2c-5,0-9.1-4.2-9.1-9.3c0-5.1,4.2-9.2,9.2-9.2
		C29.5,65.9,33.6,70.1,33.6,75.2z M29.2,80.1c-0.9-1.2-1.7-2.3-2.6-3.4c-0.2-0.2-0.2-0.3,0-0.5c1.1-1,1.5-2.5,0.9-3.8
		c-0.5-1.3-1.8-2.2-3.2-2.2c-0.9,0-1.9,0-2.8,0c-0.3,0-0.3,0.1-0.3,0.3c0,1.6,0,3.3,0,4.9c0,1.5,0,2.9,0,4.4c0,0.3,0.1,0.3,0.3,0.3
		c0.4,0,0.9,0,1.3,0c0.2,0,0.3,0,0.3-0.3c0-0.8,0-1.7,0-2.5c0-0.2,0-0.3,0.3-0.3c0.2,0,0.5,0,0.7,0c0.2,0,0.4,0.1,0.5,0.3
		c0.6,0.9,1.3,1.7,1.9,2.6c0.1,0.1,0.1,0.2,0.3,0.2C27.6,80.1,28.4,80.1,29.2,80.1z"/>
	<path fill="#010101" d="M50.7,83.7c-1,0-1.9-0.1-2.9,0c-0.8,0.1-1.3-0.2-1.8-0.9c-1-1.4-2-2.8-3.1-4.1c-0.1-0.2-0.3-0.3-0.5-0.3
		c-0.5,0-1,0-1.5,0c-0.3,0-0.4,0.1-0.4,0.4c0,1.5,0,3,0,4.5c0,0.3-0.1,0.4-0.4,0.3c-0.9,0-1.7,0-2.6,0c-0.2,0-0.3,0-0.3-0.3
		c0-5.5,0-10.9,0-16.4c0-0.2,0-0.3,0.3-0.3c1.8,0,3.5,0,5.3,0c2.6,0,5,2.1,5.5,4.8c0.4,2.3-0.3,4.2-2.1,5.6c-0.2,0.2-0.2,0.3,0,0.5
		c1.4,1.9,2.9,3.8,4.3,5.8C50.6,83.4,50.7,83.5,50.7,83.7z M40.5,72.6c0,0.8,0,1.6,0,2.4c0,0.1,0,0.2,0.2,0.2c0.7,0,1.4,0,2.1,0
		c1.3-0.1,2.3-1.2,2.4-2.5c0.1-1.3-0.9-2.5-2.2-2.7c-0.7-0.1-1.5,0-2.2,0c-0.2,0-0.3,0.1-0.3,0.3C40.5,71,40.5,71.8,40.5,72.6z"/>
	<path fill="#010101" d="M60.6,70.7c0-0.6,0-0.6,0.5-0.6c0.8,0,1.6,0,2.4,0c0.2,0,0.3,0,0.3,0.3c0,4.3,0,8.6,0,12.9
		c0,0.3-0.1,0.3-0.3,0.3c-0.8,0-1.7,0-2.5,0c-0.3,0-0.5-0.1-0.4-0.4c0,0,0-0.1,0-0.2c-0.6,0.3-1.1,0.6-1.7,0.7
		c-2.5,0.5-4.6-0.3-6.2-2.3c-2.1-2.7-2.1-6.8,0.1-9.5c1.9-2.3,5-3,7.6-1.5C60.4,70.6,60.5,70.6,60.6,70.7z M60.6,76.9
		c0-1.2-0.3-2.2-1.1-3c-1.1-1.2-2.8-1.3-4-0.1c-1.6,1.6-1.6,4.7,0.1,6.2c1,0.9,2.4,0.9,3.5,0.1C60.2,79.3,60.5,78.2,60.6,76.9z"/>
	<path d="M70.6,75c0.2-0.1,0.2-0.2,0.3-0.3c1.4-1.4,2.9-2.9,4.3-4.3c0.2-0.2,0.3-0.2,0.6-0.2c1.4,0,2.8,0,4.2,0
		c0,0.2-0.1,0.2-0.2,0.3c-1.9,1.9-3.8,3.8-5.8,5.7c-0.2,0.2-0.2,0.3,0,0.6c2.2,2.2,4.4,4.4,6.5,6.6c0.1,0.1,0.2,0.2,0.3,0.3
		c0,0.2-0.1,0.1-0.2,0.1c-1.3,0-2.7,0-4,0c-0.2,0-0.3-0.1-0.5-0.2c-1.7-1.7-3.5-3.5-5.2-5.2c-0.1-0.1-0.1-0.2-0.3-0.2
		c-0.1,0.1,0,0.3,0,0.4c0,1.6,0,3.3,0,4.9c0,0.3-0.1,0.3-0.3,0.3c-0.9,0-1.7,0-2.6,0c-0.2,0-0.3,0-0.3-0.3c0-5.8,0-11.7,0-17.5
		c0-0.2,0.1-0.3,0.3-0.3c0.9,0,1.8,0,2.7,0c0.3,0,0.3,0.1,0.3,0.3c0,2.9,0,5.7,0,8.6C70.6,74.6,70.6,74.7,70.6,75z"/>
	<path fill="#010101" d="M120.2,81c-1.1,1.6-2.5,2.6-4.5,3c-3.9,0.7-7.5-2.5-7.9-6.2c-0.3-2.4,0.4-4.6,2.1-6.3
		c2.3-2.2,5.9-2.3,8.2,0c1.7,1.7,2.4,3.7,2.3,6.1c0,0.3-0.1,0.4-0.4,0.4c-2.8,0-5.5,0-8.3,0c-0.4,0-0.4,0-0.3,0.4
		c0.6,2,2.7,3.1,4.4,2.3c0.5-0.2,0.9-0.5,1.3-1c0.2-0.2,0.3-0.2,0.5-0.1C118.5,80,119.3,80.5,120.2,81z M114.1,74.9
		c0.8,0,1.5,0,2.3,0c0.4,0,0.4,0,0.3-0.4c-0.4-1.1-1.3-1.8-2.5-1.7c-1.2,0-2.4,0.9-2.7,2c-0.1,0.3,0.1,0.2,0.2,0.2
		C112.5,74.9,113.3,74.9,114.1,74.9z"/>
	<path fill="#010101" d="M123,76.9c0-2.1,0-4.3,0-6.4c0-0.3,0.1-0.4,0.4-0.4c0.9,0,1.7,0,2.6,0c0.1,0,0.3-0.1,0.3,0.2
		c0,0.1,0.1,0,0.2,0c0.7-0.3,1.4-0.5,2.2-0.5c2.9-0.2,5.6,2,6.1,4.8c0.1,0.4,0.1,0.8,0.1,1.2c0,2.5,0,5,0,7.6c0,0.3,0,0.4-0.3,0.4
		c-0.9,0-1.7,0-2.6,0c-0.3,0-0.3-0.1-0.3-0.3c0-2.5,0-5,0-7.5c0-1.4-0.7-2.4-1.9-2.7c-1.7-0.5-3.4,0.7-3.5,2.4c0,2.6,0,5.1,0,7.7
		c0,0.3-0.1,0.4-0.4,0.4c-0.8,0-1.6,0-2.4,0c-0.3,0-0.4-0.1-0.4-0.4C123,81.1,123,79,123,76.9z"/>
	<path fill="#000101" d="M93.2,76.9c0,2.1,0,4.2,0,6.4c0,0.3-0.1,0.4-0.4,0.4c-0.8,0-1.7,0-2.5,0c-0.1,0-0.3,0.1-0.3-0.2
		c0-0.2-0.2,0-0.2,0c-0.9,0.4-1.9,0.6-2.9,0.5c-3-0.1-5.5-2.7-5.5-5.7c0-2.6,0-5.2,0-7.8c0-0.3,0.1-0.3,0.3-0.3c0.9,0,1.7,0,2.6,0
		c0.3,0,0.3,0.1,0.3,0.3c0,2.5,0,5,0,7.5c0,1.6,1.2,2.8,2.7,2.8c1.5,0,2.7-1.2,2.7-2.8c0-2.5,0-5,0-7.5c0-0.3,0.1-0.3,0.3-0.3
		c0.8,0,1.7,0,2.5,0c0.3,0,0.4,0.1,0.4,0.4C93.2,72.6,93.2,74.8,93.2,76.9z"/>
	<path fill="#010101" d="M97.8,76.8c0-1.2,0-2.2,0-3.2c0-0.2-0.1-0.3-0.3-0.3c-0.6,0-1.2,0-1.7,0c-0.2,0-0.3,0-0.3-0.2
		c0-0.9,0-1.8,0-2.7c0-0.2,0.1-0.3,0.3-0.3c0.6,0,1.1,0,1.7,0c0.3,0,0.3,0,0.3-0.3c0-0.9,0-1.8,0-2.8c0-0.3,0.1-0.3,0.3-0.3
		c0.9,0,1.7,0,2.6,0c0.3,0,0.3,0,0.3,0.3c0,0.9,0,1.8,0,2.7c0,0.3,0.1,0.4,0.4,0.4c1.3,0,2.7,0,4,0c0.3,0,0.3,0.1,0.3,0.3
		c0,0.9,0,1.8,0,2.6c0,0.2-0.1,0.3-0.3,0.3c-1.4,0-2.7,0-4.1,0c-0.3,0-0.3,0.1-0.3,0.3c0,1.8,0,3.6,0,5.4c0,0.9,0.4,1.4,1,1.6
		c0.6,0.2,1.2,0,1.6-0.6c0.1-0.2,0.2-0.3,0.5-0.2c0.9,0.2,1.7,0.5,2.6,0.7c0.2,0.1,0.2,0.1,0.2,0.3c-0.8,2-2.8,3.3-5,3
		c-2.1-0.2-3.8-1.9-4-4C97.8,78.8,97.9,77.7,97.8,76.8z"/>
	<path fill="#FEFCFC" d="M29.2,80.1c-0.8,0-1.5,0-2.3,0c-0.2,0-0.2-0.1-0.3-0.2c-0.6-0.9-1.3-1.7-1.9-2.6c-0.1-0.2-0.3-0.3-0.5-0.3
		c-0.2,0-0.5,0-0.7,0c-0.2,0-0.3,0.1-0.3,0.3c0,0.8,0,1.7,0,2.5c0,0.2-0.1,0.3-0.3,0.3c-0.4,0-0.9,0-1.3,0c-0.3,0-0.3-0.1-0.3-0.3
		c0-1.5,0-2.9,0-4.4c0-1.6,0-3.3,0-4.9c0-0.3,0.1-0.3,0.3-0.3c0.9,0,1.9,0,2.8,0c1.4,0,2.7,0.9,3.2,2.2c0.5,1.4,0.2,2.9-0.9,3.8
		c-0.2,0.2-0.2,0.3,0,0.5C27.4,77.8,28.3,79,29.2,80.1z M23.1,73.6c0,0.4,0,0.9,0,1.3c0,0.1,0,0.2,0.2,0.2c0.4,0,0.9,0,1.3,0
		c0.8-0.1,1.4-0.8,1.3-1.6c0-0.8-0.7-1.4-1.5-1.4c-0.3,0-0.7,0-1,0c-0.2,0-0.2,0-0.2,0.2C23.2,72.8,23.1,73.2,23.1,73.6z"/>
	<path fill="#FDFDFD" d="M40.5,72.6c0-0.8,0-1.6,0-2.3c0-0.2,0.1-0.3,0.3-0.3c0.7,0,1.5-0.1,2.2,0c1.3,0.2,2.3,1.4,2.2,2.7
		c-0.1,1.3-1.1,2.4-2.4,2.5c-0.7,0-1.4,0-2.1,0c-0.2,0-0.2-0.1-0.2-0.2C40.5,74.1,40.5,73.4,40.5,72.6z"/>
	<path fill="#FCFCFC" d="M60.6,76.9c0,1.2-0.4,2.4-1.4,3.2c-1.1,0.9-2.5,0.8-3.5-0.1c-1.7-1.5-1.8-4.6-0.1-6.2
		c1.2-1.2,2.8-1.1,4,0.1C60.2,74.8,60.5,75.8,60.6,76.9z"/>
	<path fill="#F7F7F7" d="M114.1,74.9c-0.8,0-1.6,0-2.4,0c-0.1,0-0.3,0.1-0.2-0.2c0.3-1,1.5-1.9,2.7-2c1.2,0,2.2,0.6,2.5,1.7
		c0.1,0.4,0.1,0.4-0.3,0.4C115.7,74.9,114.9,74.9,114.1,74.9z"/>
	<path fill="#D10103" d="M23.1,73.6c0-0.4,0-0.9,0-1.3c0-0.2,0.1-0.2,0.2-0.2c0.3,0,0.7,0,1,0c0.8,0,1.5,0.6,1.5,1.4
		c0,0.8-0.5,1.5-1.3,1.6c-0.4,0.1-0.9,0-1.3,0c-0.2,0-0.2-0.1-0.2-0.2C23.1,74.5,23.1,74.1,23.1,73.6z"/>
</g>
</svg>
