<?xml version="1.0" encoding="UTF-8"?>
<svg id="Layer_2" data-name="Layer 2" xmlns="http://www.w3.org/2000/svg" viewBox="0 0 114.76 39.82">
  <defs>
    <style>
      .cls-1, .cls-2 {
        stroke-width: 0px;
      }

      .cls-2 {
        fill: #e42a20;
      }
    </style>
  </defs>
  <g id="Layer_1-2" data-name="Layer 1">
    <path id="path5106" class="cls-1" d="m91.32,2.5h3.02v-1.11h-10.54v1.11h3.04v21.2h-3.04v1.1h10.54v-1.1h-3.02V2.5Z"/>
    <path id="path5118" class="cls-1" d="m110.49,24.8v-1.1h-3.23V2.27c4.94-.25,5.78.81,6.41,5.29h1.08l-.38-6.17h-18.75l-.38,6.17h1.11c.64-4.48,1.47-5.54,6.42-5.29v21.44h-3.23v1.1s10.95,0,10.95,0"/>
    <path id="path5122" class="cls-1" d="m81.8,2.49v-1.11h-8.64l-5.08,16.01L63.18,1.39h-8.6v1.11h3.03v21.21h-3.27c-3.04.07-3.08-2.52-3.07-3.05.04-5.71-1.23-7.79-6.7-8.63v-.08c3.26-.35,7.43-1.27,7.43-5.23,0-4.87-4.55-5.33-8.38-5.33h-11.29v1.11h3.02v21.21h-3.02v1.1h10.53v-1.1h-3.02v-11.18c1.94-.08,4.13.42,5.12,1.27.91.77,1.4,3.18,1.4,6.08,0,3.58,1.85,4.94,5.39,4.94h10.15v-1.1h-2.96V2.86h.07l6.97,21.95h1.18l7.01-21.95h.11v20.85h-3.02v1.1h10.52v-1.1h-3.02V2.49h3.02Zm-41.96,8.93V2.49h3.05c3.12,0,4.28.78,4.28,4.72,0,3.14-1.29,4.21-4.45,4.21h-2.87"/>
    <path id="path5126" class="cls-2" d="m13.7,0h-3.5v2.84h-5.82v5.92H0v8.7h4.38v5.92h5.82v2.83h3.08c7.2,0,13.55-5.81,13.55-13.07S20.91,0,13.7,0"/>
    <path id="path5130" class="cls-1" d="m35.35,31.89c0-.2-.1-.29-.29-.29h-.56v-1.12h1.31c.59,0,.83.25.83.83v5.08c0,1.38.87,2.2,2.2,2.2s2.2-.82,2.2-2.21v-5.07c0-.59.26-.83.84-.83h1.3v1.12h-.56c-.18,0-.28.09-.28.29v4.56c0,2-1.39,3.37-3.49,3.37s-3.51-1.37-3.51-3.37v-4.56Z"/>
    <path id="path5134" class="cls-1" d="m44.07,38.54h.56c.18,0,.29-.1.29-.29v-7.77h1.18l4.08,5.81c.34.49.77,1.25.77,1.25h.02s-.09-.73-.09-1.25v-4.98c0-.59.25-.83.84-.83h1.3v1.12h-.56c-.18,0-.29.09-.29.29v7.77h-1.17l-4.09-5.81c-.34-.5-.75-1.25-.75-1.25h-.03s.08.74.08,1.25v4.98c0,.59-.25.83-.83.83h-1.31v-1.12Z"/>
    <path id="path5138" class="cls-1" d="m54.44,38.54h.9v-6.94h-.9v-1.12h3.03v1.12h-.9v6.94h.9v1.12h-3.03v-1.12Z"/>
    <path id="path5142" class="cls-1" d="m58.89,31.89c-.08-.23-.21-.29-.43-.29h-.18v-1.12h.73c.65,0,.87.14,1.08.75l2.01,5.66c.17.49.35,1.26.35,1.26h.03s.17-.77.35-1.26l2.01-5.66c.22-.61.43-.75,1.08-.75h.73v1.12h-.18c-.24,0-.35.05-.43.29l-2.89,7.77h-1.38l-2.89-7.77Z"/>
    <path id="path5146" class="cls-1" d="m68.25,31.6h-.84v-1.12h5.4c.58,0,.83.25.83.83v1.16h-1.18v-.59c0-.2-.1-.29-.29-.29h-2.61v2.87h3.21v1.12h-3.21v2.67c0,.18.1.29.29.29h2.68c.18,0,.29-.1.29-.29v-.59h1.19v1.16c0,.59-.25.83-.83.83h-4.08c-.59,0-.83-.25-.83-.83v-7.23Z"/>
    <path id="path5150" class="cls-1" d="m78.81,34.89c.99,0,1.57-.64,1.57-1.66s-.58-1.63-1.55-1.63h-1.72v3.29h1.69Zm-2.99-3.29h-.84v-1.12h4c1.61,0,2.74,1.01,2.74,2.69,0,1.53-1,2.29-1.65,2.43v.03s.24.12.39.42l1.11,2.2c.13.27.34.3.65.3h.17v1.12h-.64c-.71,0-.97-.09-1.27-.69l-1.25-2.47c-.23-.43-.4-.49-.91-.49h-1.2v3.65h-1.3s0-8.06,0-8.06Z"/>
    <path id="path5154" class="cls-1" d="m84.05,37.53s.94,1.11,2.3,1.11c.86,0,1.58-.52,1.58-1.37,0-1.92-4.43-1.63-4.43-4.48,0-1.38,1.21-2.46,2.94-2.46.98,0,2.61.44,2.61,1.69v.76h-1.19v-.43c0-.48-.69-.83-1.42-.83-.99,0-1.61.55-1.61,1.24,0,1.86,4.42,1.44,4.42,4.46,0,1.41-1.09,2.61-2.91,2.61-1.95,0-3.04-1.37-3.04-1.37l.77-.92Z"/>
    <path id="path5158" class="cls-1" d="m90.6,38.54h.9v-6.94h-.9v-1.12h3.03v1.12h-.9v6.94h.9v1.12h-3.03v-1.12Z"/>
    <path id="path5162" class="cls-1" d="m97.76,31.6h-1.85c-.18,0-.29.09-.29.29v.59h-1.16v-1.21c0-.58.19-.78.78-.78h6.32c.58,0,.78.2.78.78v1.21h-1.16v-.59c0-.2-.1-.29-.29-.29h-1.85v8.06h-1.3v-8.06Z"/>
    <path id="path5166" class="cls-1" d="m106.06,35.66l-2.33-3.73c-.17-.27-.29-.32-.56-.32h-.26v-1.12h.6c.62,0,.87.09,1.24.7l1.39,2.31c.3.51.56,1.03.56,1.03h.03s.25-.52.56-1.03l1.38-2.31c.36-.61.62-.7,1.23-.7h.6v1.12h-.25c-.27,0-.4.05-.57.32l-2.32,3.73v4h-1.3v-4Z"/>
  </g>
</svg>