<?xml version="1.0" encoding="utf-8"?>
<!-- Generator: Adobe Illustrator 27.8.1, SVG Export Plug-In . SVG Version: 6.00 Build 0)  -->
<svg version="1.2" baseProfile="tiny" id="Layer_1" xmlns="http://www.w3.org/2000/svg" xmlns:xlink="http://www.w3.org/1999/xlink"
	 x="0px" y="0px" viewBox="0 0 150 150" overflow="visible" xml:space="preserve">
<g>
	<path fill="#FFCC01" d="M76.8,64.1c-0.3-0.8-0.4-1.5-0.5-2.3c-0.1-1.3,0.1-2.6,0.6-3.8c0.6-1.4,1.1-2.7,1.8-4c1-2,2.3-3.8,3.9-5.3
		c1-0.9,2-1.8,3-2.6c0.9-0.7,1.9-1.3,2.8-1.9c0.9-0.7,2-0.9,3.1-1.2c1.3-0.3,2.7-0.4,4-0.7c0.3-0.1,0.6-0.2,0.8-0.3
		c0.3-0.1,0.5-0.2,0.8-0.3c0.7-0.2,0.8-0.1,1.2,0.5c0.4,0.8,0.8,1.7,1,2.5c0.4,1.7,0.7,3.4,0.8,5.1c0,2.2-0.6,4.3-1.7,6.1
		c-1,1.6-2.2,3.2-3.5,4.6c-0.4,0.4-0.8,0.8-1.3,1.1c-1.2,0.9-2.5,1.7-3.8,2.4c-0.2,0.1-0.4,0.1-0.6,0c-2.7-0.8-5.4-1.1-8.2-1.2
		c-0.9,0-1.7,0-2.6,0.2c-0.6,0.1-1.1,0.4-1.5,0.8C77,64.1,76.9,64.1,76.8,64.1z"/>
	<path fill="#FFCC01" d="M90,82.8c-0.8,0-1.9-0.2-3.1-0.4c-1.5-0.3-2.9-0.6-4.3-1.2c-1.4-0.5-2.6-1.2-3.7-2.3
		c-0.6-0.6-1.2-1.2-1.7-1.9c-0.1-0.2-0.2-0.3,0-0.5c0.7-0.9,0.9-2,0.9-3.1c0.1-2.3-0.2-4.7-0.8-6.9c-0.1-0.2-0.1-0.3-0.2-0.5
		c-0.1-0.1-0.1-0.2,0.1-0.3c0.3-0.2,0.6-0.4,0.7-0.8c0-0.1,0.1-0.1,0.2-0.1c1-0.1,1.9-0.3,2.8-0.4c0.6-0.1,1.3,0,1.9,0
		c1.2,0.1,2.3,0.2,3.5,0.5c1.9,0.4,3.7,0.9,5.4,2c2.4,1.6,4.4,3.5,6,5.8c0.6,0.9,1,1.9,1.6,2.8c0.2,0.4,0.4,0.7,0.6,1.1
		c0.3,0.7,0.2,1.4-0.3,2c-0.5,0.6-1.1,1-1.8,1.5c-1,0.7-2,1.4-3.2,1.9C93.3,82.6,91.9,82.9,90,82.8z"/>
	<path fill="#FFCC01" d="M63,48.9c0-0.4,0-0.8,0.1-1.1c0.4-2.2,0.5-4.4,0.5-6.6c0-0.2,0-0.4,0-0.6c0-0.3,0-0.5,0-0.8
		c0-0.7,0.2-0.8,0.8-0.8c0.6,0,1.1,0,1.7,0.1c1.6,0.2,3.2,0.5,4.8,0.9c2.9,0.8,5,2.5,6.3,5.1c0.9,1.7,1.5,3.6,2,5.4
		c0.1,0.2,0,0.3-0.1,0.4c-1.6,1.9-2.6,4.2-3.5,6.5c-0.3,0.8-0.6,1.6-0.7,2.5c-0.2,1.3,0,2.5,0.4,3.7c0.2,0.5,0.2,0.5-0.3,0.4
		c-0.6-0.1-1.2-0.3-1.7-0.5c-1.7-0.9-3.1-2-4.4-3.4c-1-1.1-2-2.2-2.9-3.4c-1.4-1.8-2.4-3.8-2.8-6.1C63,50,63,49.4,63,48.9z"/>
	<path fill="#FFCC01" d="M75.5,65.8c-0.3,0.4-0.7,0.7-1.1,1c-1,0.7-2.2,1.2-3.4,1.5c-1.8,0.4-3.7,0.7-5.5,1.1
		c-1,0.2-1.9,0.3-2.9,0.3c-1.4,0.1-2.8,0-4.1-0.5c-0.6-0.2-1.1-0.4-1.7-0.8c-1-0.6-2.1-1.3-3.1-1.9c-0.7-0.4-1.5-0.7-2.3-1
		c-0.2-0.1-0.5-0.1-0.7-0.2c-0.2-0.1-0.4-0.1-0.6-0.3c-0.4-0.3-0.4-0.5-0.1-0.8c0.1-0.1,0.2-0.2,0.3-0.3c0.4-0.2,0.6-0.6,0.9-1
		c0.3-0.6,0.5-1.3,0.6-2c0.2-1,0.5-1.8,1.1-2.6c1.1-1.6,2.5-2.7,4.4-3.3c1.2-0.4,2.5-0.4,3.7-0.3c0.7,0.1,1.5,0.2,2.2,0.4
		c0.2,0.1,0.3,0.1,0.4,0.3c0.8,1.7,2,3.1,3.2,4.5c0.8,1,1.7,1.9,2.8,2.6c0.2,0.1,0.3,0.2,0.5,0.4c1.3,0.8,2.7,1.5,4.1,2.3
		C74.7,65.6,75.1,65.7,75.5,65.8z"/>
	<path fill="#FFCC01" d="M76.2,66.4c0.4,1.2,0.6,2.5,0.7,3.8c0.1,0.7,0.1,1.4,0.1,2.1c-0.1,1.2-0.2,2.3-0.8,3.4
		c-0.3,0.6-0.7,1.2-1.1,1.8c-0.6,0.9-1.2,1.8-2,2.6c-1.5,1.5-3.3,2.5-5.4,3.1c-1.1,0.3-2.1,0.6-3.1,1c-0.4,0.1-0.8,0.1-1.1-0.2
		c-0.2-0.2-0.4-0.3-0.5-0.6c-0.7-1.2-1.7-2.2-2.6-3.2c-0.4-0.4-0.7-0.8-1.1-1.2c-0.3-0.3-0.5-0.7-0.6-1.1c-0.3-1.2-0.4-2.4-0.3-3.5
		c0-0.3,0.1-0.6,0.3-0.9c0.5-0.9,1.2-1.8,1.9-2.6c0.2-0.2,0.4-0.3,0.7-0.2c1.2,0.3,2.4,0.3,3.6,0.2c1.7-0.2,3.3-0.5,4.9-0.8
		c1.1-0.2,2.2-0.5,3.3-1c1.2-0.6,2.2-1.4,3-2.4C76,66.5,76,66.4,76.2,66.4z"/>
	<path fill="#6B6B6C" d="M49.1,94.8c-0.1,0-0.2,0.1-0.2,0.2c-0.9,1.7-1.7,3.4-2.5,5.2c-0.1,0.3-0.2,0.5-0.3,0.8
		c0,0.1-0.1,0.2-0.2,0.3c-0.1,0.1-0.3,0.1-0.4,0c0,0,0-0.1,0-0.1c-0.5-1.7-1.3-3.3-2-4.9c-0.2-0.4-0.3-0.8-0.5-1.1
		c-0.1-0.1-0.1-0.4-0.3-0.3c-0.2,0-0.1,0.3-0.1,0.4c0,0.9-0.1,1.7-0.1,2.6c0,0.6-0.1,1.3-0.1,1.9c0,0.6,0.2,0.8,0.7,1
		c0.1,0,0.2,0,0.3,0.1c0.1,0.1,0.1,0.1,0.1,0.2c0,0.1-0.1,0.1-0.2,0.2c-0.1,0-0.2,0-0.3,0c-0.7,0-1.3,0-2,0c-0.1,0-0.1,0-0.2,0
		c-0.1,0-0.2-0.1-0.2-0.2c0-0.1,0.1-0.2,0.2-0.2c0,0,0,0,0,0c0.8-0.3,0.8-0.3,0.8-1.1c0.1-1.7,0.1-3.4,0.2-5.1c0-0.5-0.1-0.8-0.6-1
		c-0.2-0.1-0.4-0.1-0.3-0.4c0.1-0.3,0.3-0.1,0.5-0.1c0.5,0,0.9,0.1,1.4,0c0.4,0,0.5,0,0.6,0.4c0.8,1.8,1.5,3.5,2.3,5.3
		c0.1,0.2,0.1,0.4,0.3,0.5c0.1-0.1,0.2-0.3,0.2-0.4c0.8-1.7,1.7-3.5,2.5-5.2c0.2-0.4,0.4-0.5,0.8-0.5c0.4,0,0.9-0.1,1.3-0.1
		c0.1,0,0.3-0.1,0.4,0.1c0,0.2-0.1,0.3-0.3,0.3c-0.2,0.1-0.3,0.1-0.5,0.2c-0.2,0.1-0.3,0.3-0.3,0.5c0.1,1.9,0.2,3.9,0.2,5.8
		c0,0.4,0.1,0.6,0.6,0.7c0.1,0,0.2,0,0.3,0.1c0.1,0.1,0.1,0.1,0.1,0.2c0,0.1-0.1,0.1-0.2,0.1c-0.1,0-0.2,0-0.3,0c-0.8,0-1.5,0-2.3,0
		c-0.1,0-0.1,0-0.2,0c-0.1,0-0.2-0.1-0.2-0.2c0-0.1,0.1-0.2,0.2-0.2c0.1,0,0.2-0.1,0.4-0.1c0.5-0.1,0.5-0.2,0.5-0.7
		c0-0.5,0-1-0.1-1.5c0-1.1-0.1-2.2-0.1-3.4C49.2,95,49.2,94.9,49.1,94.8z"/>
	<path fill="#6B6B6B" d="M26.9,93.1c0.7,0,1.4-0.1,2.1,0.1c0.2,0,0.4,0.1,0.5,0.1c1.2,0.4,1.6,1.5,1.2,2.6c-0.2,0.6-0.7,0.9-1.3,1.2
		c-0.5,0.2-0.5,0.2-0.3,0.7c0.4,0.8,0.9,1.6,1.5,2.2c0.3,0.4,0.7,0.7,1.2,0.8c0.1,0,0.1,0,0.2,0.1c0.1,0.1,0.1,0.2-0.1,0.3
		c-0.1,0-0.2,0-0.4,0c-0.8-0.1-1.4-0.5-1.9-1c-0.7-0.6-1.2-1.4-1.7-2.2c0,0-0.1-0.1-0.1-0.1c-0.3-0.5-0.1-0.4-0.7-0.4
		c-0.2,0-0.3,0.1-0.3,0.3c0,0.8,0,1.5,0,2.3c0,0.3,0.1,0.4,0.4,0.5c0.1,0,0.3,0.1,0.4,0.1c0.1,0,0.3,0.1,0.2,0.3
		c0,0.2-0.2,0.2-0.3,0.2c-0.7,0-1.4,0-2.1,0c-0.2,0-0.3,0-0.5,0c-0.1,0-0.2-0.1-0.2-0.2c0-0.1,0.1-0.2,0.2-0.2c0.1,0,0.1,0,0.2,0
		c0.4-0.1,0.5-0.3,0.5-0.6c0-0.1,0-0.2,0-0.2c0-1.8,0-3.6,0-5.4c0-0.6-0.1-0.8-0.7-1c-0.1,0-0.2-0.1-0.2-0.1c-0.1,0-0.1-0.1-0.1-0.2
		c0-0.1,0.1-0.1,0.1-0.1c0.1,0,0.1,0,0.2,0C25.8,93.2,26.3,93.1,26.9,93.1z M26.9,95.5C26.9,95.5,26.9,95.5,26.9,95.5
		c0,0.5,0,0.9,0,1.4c0,0.2,0.1,0.3,0.3,0.3c0.4,0,0.9-0.1,1.3-0.2c0.8-0.3,1.1-0.8,1.2-1.6c0-0.2,0-0.4-0.1-0.6
		c-0.1-0.5-0.4-0.9-0.9-1c-0.4-0.1-0.8-0.1-1.2-0.1c-0.4,0-0.6,0.2-0.6,0.6C26.9,94.6,26.9,95,26.9,95.5z"/>
	<path fill="#6B6B6C" d="M66.6,97.2c0-0.9,0-1.8,0-2.7c0-0.6-0.1-0.7-0.6-0.9c-0.2-0.1-0.4-0.1-0.3-0.3c0.1-0.2,0.3-0.1,0.4-0.1
		c0.8,0.1,1.5,0,2.3,0c0.5,0,0.9,0,1.4,0.1c0.1,0,0.3,0.1,0.4,0.1c0.8,0.2,1.3,0.7,1.4,1.5c0.1,0.9-0.2,1.6-0.9,2.1
		c-0.3,0.2-0.5,0.3-0.8,0.4c-0.2,0-0.2,0.1-0.1,0.3c0.5,1.1,1.1,2.1,2,2.9c0.2,0.2,0.5,0.4,0.9,0.5c0.1,0,0.1,0,0.2,0.1
		c0.1,0,0.1,0.1,0.1,0.2c0,0.1-0.1,0.1-0.2,0.1c-0.1,0-0.2,0-0.4,0c-0.7-0.1-1.3-0.4-1.9-0.9c-0.7-0.6-1.2-1.4-1.7-2.2
		c0-0.1-0.1-0.2-0.1-0.3c-0.2-0.4-0.4-0.5-0.8-0.4c-0.1,0-0.1,0.1-0.1,0.2c0,0.1,0,0.3,0,0.4c0,0.6,0,1.2,0,1.9
		c0,0.4,0.1,0.5,0.5,0.6c0.1,0,0.2,0,0.4,0.1c0.1,0,0.3,0.1,0.2,0.3c0,0.2-0.2,0.2-0.3,0.2c-0.8,0-1.6,0-2.5,0c0,0-0.1,0-0.1,0
		c-0.1,0-0.2-0.1-0.2-0.2c0-0.1,0-0.2,0.1-0.2c0.1,0,0.1,0,0.2,0c0.5-0.1,0.6-0.3,0.6-0.7c0-0.5,0-0.9,0-1.4
		C66.6,98.2,66.6,97.7,66.6,97.2z M68.7,93.5c-0.1,0-0.2,0-0.4,0c-0.4,0-0.5,0.2-0.5,0.6c0,0.9,0,1.8,0,2.7c0,0.2,0.1,0.2,0.3,0.2
		c0.5-0.1,1-0.1,1.5-0.3c0.6-0.2,0.9-0.7,1-1.3c0-0.3,0-0.6-0.1-0.9c-0.1-0.4-0.4-0.7-0.8-0.9C69.3,93.6,69,93.6,68.7,93.5z"/>
	<path fill="#6B6B6B" d="M121.3,92.9c0.6,0,1.4,0.1,2.1,0.4c0.4,0.2,0.7,0.4,0.6,0.9c0,0.3,0,0.6,0,0.8c0,0.1,0,0.3-0.2,0.3
		c-0.2,0-0.4,0-0.5-0.2c-0.1-0.1-0.1-0.3-0.2-0.4c-0.3-0.7-0.9-1.1-1.6-1.2c-0.5-0.1-1.1-0.1-1.7,0c-1,0.2-1.7,0.8-2,1.7
		c-0.4,1.1-0.4,2.2-0.1,3.3c0.7,2,3,2.8,4.8,1.8c0.3-0.1,0.4-0.3,0.4-0.7c0-0.4,0-0.7,0-1.1c0-0.4-0.2-0.7-0.6-0.8
		c-0.1,0-0.2-0.1-0.4-0.1c-0.1-0.1-0.3-0.1-0.2-0.3c0-0.2,0.2-0.2,0.3-0.1c0.1,0,0.3,0,0.4,0c0.6,0.1,1.3,0.1,1.9,0
		c0.1,0,0.2,0,0.3,0c0.1,0,0.2,0,0.2,0.1c0,0.1,0,0.2-0.1,0.3c-0.1,0.1-0.2,0.1-0.4,0.1c-0.4,0.1-0.5,0.2-0.5,0.6c0,0.5,0,1,0,1.5
		c0,0.4-0.1,0.6-0.4,0.8c-0.7,0.4-1.4,0.6-2.2,0.7c-1.1,0.1-2.1,0-3-0.5c-2.8-1.5-2.8-5.3-0.5-7C119,93.1,120,92.8,121.3,92.9z"/>
	<path fill="#6C6C6C" d="M129.5,101.2c-0.9,0-1.7,0-2.6,0c-0.1,0-0.2,0-0.2,0c-0.1,0-0.1-0.1-0.2-0.2c0-0.1,0-0.2,0.1-0.2
		c0.1,0,0.2-0.1,0.4-0.1c0.2,0,0.3-0.2,0.3-0.4c0-0.1,0-0.2,0-0.4c0-1.8,0-3.7,0-5.5c0-0.1,0-0.2,0-0.2c0-0.4-0.2-0.6-0.5-0.7
		c0,0-0.1,0-0.1,0c-0.1-0.1-0.3-0.1-0.2-0.3c0-0.2,0.2-0.2,0.3-0.1c1.6,0.1,3.3,0.1,4.9,0c0.5,0,0.5,0,0.4,0.5c0,0.3,0,0.6,0,0.9
		c0,0.1,0,0.3-0.2,0.3c-0.2,0-0.3-0.1-0.3-0.2c-0.2-0.7-0.7-0.8-1.3-0.8c-0.5,0-1,0-1.5,0c-0.3,0-0.4,0-0.4,0.4c0,0.7,0,1.5,0,2.2
		c0,0.3,0,0.3,0.3,0.3c0.4,0,0.9-0.1,1.3-0.1c0.2,0,0.4-0.1,0.4-0.4c0-0.1,0-0.2,0.1-0.3c0-0.2,0.1-0.2,0.3-0.2
		c0.2,0,0.2,0.1,0.2,0.3c-0.1,0.5-0.1,0.9-0.1,1.4c0,0.2,0,0.4,0,0.6c0,0.1,0,0.2-0.2,0.3c-0.2,0-0.2-0.1-0.3-0.2c0,0,0-0.1,0-0.1
		c-0.1-0.6-0.2-0.7-0.9-0.7c-0.3,0-0.6,0-1,0c-0.2,0-0.3,0.1-0.3,0.3c0,0.8,0,1.6,0,2.5c0,0.4,0.2,0.7,0.6,0.7
		c0.7,0.1,1.4,0.1,2-0.1c0.5-0.1,0.8-0.4,1-0.8c0,0,0-0.1,0-0.1c0.1-0.2,0.1-0.3,0.3-0.2c0.2,0.1,0.2,0.2,0.1,0.4
		c-0.1,0.4-0.1,0.7-0.2,1.1c0,0.3-0.1,0.4-0.4,0.4C131.2,101.2,130.3,101.2,129.5,101.2z"/>
	<path fill="#6C6C6C" d="M60.6,101.2c-0.5,0-1.3,0-2.2,0c-0.1,0-0.1,0-0.2,0c-0.1,0-0.2-0.1-0.2-0.2c0-0.1,0.1-0.2,0.2-0.2
		c0.1,0,0.2,0,0.3-0.1c0.3-0.1,0.4-0.2,0.4-0.5c0-0.1,0-0.2,0-0.3c0-1.8,0-3.7,0-5.5c0-0.1,0-0.2,0-0.3c0-0.3-0.1-0.5-0.4-0.6
		c-0.1,0-0.2-0.1-0.3-0.1C58,93.4,58,93.3,58,93.2c0-0.1,0.1-0.2,0.3-0.2c0.2,0,0.5,0.1,0.7,0.1c1.4,0,2.8,0,4.2,0
		c0.1,0,0.2,0,0.2,0c0.2,0,0.3,0.1,0.3,0.3c-0.1,0.4-0.1,0.8-0.1,1.2c0,0.1,0,0.2-0.1,0.2c-0.1,0-0.2,0-0.3-0.1
		c-0.1-0.1-0.1-0.2-0.2-0.3c-0.2-0.4-0.4-0.5-0.8-0.6c-0.7-0.1-1.3,0-2,0c-0.2,0-0.3,0.1-0.3,0.3c0,0.8,0,1.6,0,2.4
		c0,0.2,0.1,0.3,0.3,0.2c0.5,0,1-0.1,1.5-0.1c0.2,0,0.3-0.1,0.3-0.3c0-0.1,0.1-0.3,0.1-0.4c0-0.1,0.1-0.2,0.3-0.2
		c0.2,0,0.2,0.1,0.2,0.3c-0.1,0.4-0.1,0.8-0.1,1.2c0,0.2,0,0.5,0,0.7c0,0.1,0,0.3-0.2,0.3c-0.2,0-0.2-0.1-0.3-0.2
		c-0.2-0.7-0.2-0.7-1-0.8c-0.3,0-0.6,0-0.9,0c-0.2,0-0.3,0-0.3,0.3c0,0.8,0,1.6,0,2.5c0,0.4,0.2,0.7,0.7,0.7c0.6,0.1,1.2,0.1,1.9,0
		c0.5-0.1,0.9-0.4,1.1-0.9c0-0.1,0.1-0.2,0.1-0.2c0.1-0.1,0.1-0.1,0.2,0c0.1,0,0.2,0.1,0.1,0.2c0,0.2-0.1,0.4-0.1,0.6
		c0,0.2-0.1,0.4-0.1,0.6c0,0.3-0.1,0.4-0.4,0.4C62.7,101.2,61.8,101.2,60.6,101.2z"/>
	<path fill="#6B6B6C" d="M110.5,98.3c-0.4,0-0.8,0-1.2,0c-0.2,0-0.3,0.1-0.4,0.2c-0.1,0.4-0.3,0.8-0.5,1.2c-0.2,0.5-0.1,0.7,0.4,1
		c0.1,0.1,0.2,0.1,0.3,0.2c0.1,0,0.1,0.1,0.1,0.2c0,0.1-0.1,0.1-0.2,0.1c-0.1,0-0.2,0-0.3,0c-0.7-0.1-1.3-0.1-1.9,0.1
		c-0.1,0-0.1,0-0.2,0c-0.1,0-0.2,0-0.2-0.1c-0.1-0.1,0-0.2,0.1-0.3c0.1-0.1,0.1-0.1,0.2-0.1c0.4-0.2,0.6-0.4,0.8-0.8
		c1-2.2,2-4.3,2.7-6.6c0-0.1,0.1-0.2,0.1-0.3c0.3-0.3,0.5-0.3,0.7,0.1c0.7,1.6,1.4,3.3,2.1,4.9c0.3,0.6,0.5,1.2,0.8,1.8
		c0.2,0.4,0.5,0.7,0.9,0.8c0.1,0,0.1,0,0.2,0.1c0.1,0.1,0.1,0.1,0.1,0.2c0,0.1-0.1,0.1-0.2,0.1c-0.2,0-0.4-0.1-0.6-0.1
		c-0.6,0-1.2,0-1.9,0c-0.2,0-0.4,0.1-0.4-0.1c0-0.2,0.2-0.2,0.3-0.3c0,0,0.1,0,0.1-0.1c0.4-0.2,0.5-0.3,0.3-0.8
		c-0.2-0.4-0.4-0.8-0.5-1.3c-0.1-0.2-0.2-0.3-0.5-0.3C111.3,98.3,110.9,98.3,110.5,98.3C110.5,98.3,110.5,98.3,110.5,98.3z
		 M110.5,94.8c-0.2,0.3-1.2,2.5-1.2,2.9c0.5,0.1,1.9,0.1,2.5,0C111.4,96.8,110.9,95.8,110.5,94.8z"/>
	<path fill="#6C6C6C" d="M36.1,101.1c-0.8,0-1.6,0-2.5,0.1c0,0-0.1,0-0.1,0c-0.1,0-0.3,0-0.3-0.2c0-0.2,0.1-0.2,0.3-0.2
		c0.4,0,0.6-0.2,0.6-0.7c0-1.9,0-3.8,0-5.7c0-0.1,0-0.2,0-0.4c0-0.2-0.1-0.4-0.4-0.5c-0.1,0-0.2-0.1-0.3-0.1
		c-0.1-0.1-0.2-0.1-0.2-0.3c0-0.2,0.2-0.2,0.3-0.1c0.3,0,0.5,0.1,0.8,0.1c1.4,0,2.7,0,4.1-0.1c0,0,0.1,0,0.1,0c0.4,0,0.4,0,0.3,0.4
		c-0.1,0.4-0.1,0.7-0.1,1.1c0,0.1,0,0.2-0.1,0.3c-0.1,0-0.2,0-0.3-0.1c-0.1-0.1-0.1-0.2-0.2-0.3c-0.1-0.3-0.4-0.5-0.7-0.5
		c-0.7-0.1-1.4,0-2.1,0c-0.2,0-0.2,0.1-0.2,0.3c0,0.8,0,1.6,0,2.5c0,0.2,0.1,0.2,0.2,0.2c0.5,0,1-0.1,1.5-0.1c0.2,0,0.3-0.1,0.3-0.3
		c0-0.1,0.1-0.3,0.1-0.4c0-0.1,0.1-0.2,0.3-0.2c0.1,0,0.2,0.1,0.2,0.3c0,0.3-0.1,0.6-0.1,1c0,0.3,0,0.7,0,1c0,0.2,0,0.3-0.2,0.3
		c-0.2,0-0.2-0.1-0.2-0.2c-0.1-0.8-0.3-0.8-1-0.8c-0.3,0-0.6,0-0.9,0c-0.2,0-0.2,0.1-0.2,0.3c0,0.8,0,1.7,0,2.5
		c0,0.3,0.2,0.5,0.5,0.6c0.1,0,0.3,0.1,0.4,0.1c0.4,0,0.7,0,1.1,0c0.8,0,1.4-0.3,1.7-1c0.1-0.1,0.1-0.2,0.3-0.2
		c0.2,0.1,0.2,0.2,0.1,0.3c-0.1,0.4-0.2,0.8-0.2,1.2c0,0.2-0.1,0.3-0.3,0.3c-0.4,0-0.7,0-1.1,0C37.2,101.2,36.7,101.2,36.1,101.1
		C36.1,101.2,36.1,101.1,36.1,101.1z"/>
	<path fill="#6B6B6B" d="M19,101.1c-0.4,0-0.7,0-1.1,0c-0.1,0-0.2,0-0.2,0c-0.1,0-0.1-0.1-0.2-0.2c0-0.1,0-0.2,0.1-0.2
		c0.1,0,0.2,0,0.3-0.1c0.3-0.1,0.4-0.2,0.4-0.5c0-0.1,0-0.2,0-0.4c0-1.8,0-3.6,0-5.4c0-0.7-0.1-0.8-0.7-1c-0.1,0-0.2,0-0.2-0.1
		c-0.1-0.1-0.1-0.2,0-0.2c0-0.1,0.1-0.1,0.2-0.1c0,0,0.1,0,0.1,0c0.9,0.1,1.8,0,2.7,0c0.5,0,1,0,1.5,0.2c0.9,0.3,1.5,0.8,1.6,1.7
		c0.1,1-0.2,1.8-1.1,2.3c-0.7,0.4-1.5,0.5-2.4,0.5c-0.1,0-0.2,0-0.3,0c-0.2,0-0.2,0-0.2,0.2c0,0.7,0,1.5,0,2.2
		c0,0.2,0.1,0.4,0.3,0.4c0.2,0,0.3,0.1,0.5,0.1c0.1,0,0.3,0.1,0.3,0.3c0,0.2-0.2,0.2-0.3,0.2C19.8,101.2,19.4,101.2,19,101.1
		C19,101.2,19,101.2,19,101.1z M20.5,93.6c-0.2,0-0.4,0-0.5,0c-0.4,0-0.5,0.2-0.6,0.6c0,0.9,0,1.9,0,2.8c0,0.2,0.1,0.3,0.3,0.3
		c0.4,0.1,0.9,0.1,1.3-0.1c0.8-0.2,1.2-0.8,1.3-1.6c0-0.2,0-0.5,0-0.7c-0.1-0.7-0.4-1.1-1.1-1.2C20.9,93.6,20.7,93.6,20.5,93.6z"/>
	<path fill="#6B6B6B" d="M81.6,99.5c0.2-0.1,0.2-0.2,0.2-0.3c0.7-1.5,1.4-3.1,2.1-4.6c0.2-0.5,0.2-0.7-0.3-1
		c-0.1-0.1-0.3-0.1-0.4-0.2c-0.1,0-0.1-0.1-0.1-0.2c0-0.1,0.1-0.2,0.2-0.2c0.1,0,0.2,0,0.4,0c0.6,0.1,1.3,0.1,1.9,0c0,0,0.1,0,0.1,0
		c0.1,0,0.3,0,0.3,0.2c0,0.1,0,0.3-0.2,0.3c-0.5,0.1-0.7,0.6-1,1c-1.1,2.1-2,4.2-2.9,6.3c-0.1,0.2-0.1,0.3-0.3,0.4
		c-0.3,0.2-0.4,0.1-0.5-0.2c-0.2-0.7-0.5-1.4-0.8-2.1c-0.7-1.6-1.5-3.1-2.3-4.7c-0.2-0.4-0.5-0.7-1-0.8c0,0-0.1,0-0.1,0
		c-0.1,0-0.2-0.1-0.1-0.2c0-0.1,0.1-0.2,0.2-0.2c0.2,0,0.3,0,0.5,0c0.7,0,1.3,0,2-0.1c0.1,0,0.3,0,0.4,0c0.1,0,0.2,0,0.2,0.1
		c0,0.1,0,0.2-0.1,0.2c-0.1,0-0.1,0.1-0.2,0.1c-0.1,0-0.2,0.1-0.3,0.1c-0.3,0.2-0.4,0.3-0.2,0.6c0.3,0.6,0.5,1.1,0.8,1.7
		c0.5,1.1,1,2.3,1.5,3.4C81.5,99.3,81.5,99.4,81.6,99.5z"/>
	<path fill="#6B6B6B" d="M102.4,101.2c-0.8,0-1.7,0-2.5,0c-0.1,0-0.1,0-0.2,0c-0.1,0-0.2-0.1-0.2-0.2c0-0.1,0-0.2,0.1-0.2
		c0.1,0,0.1,0,0.2,0c0.4-0.1,0.5-0.2,0.5-0.6c0-0.1,0-0.1,0-0.2c0-1.8,0-3.6,0-5.4c0-0.1,0-0.3,0-0.4c0-0.3-0.2-0.5-0.4-0.6
		c-0.1-0.1-0.2-0.1-0.3-0.2c-0.1-0.1-0.1-0.1-0.1-0.2c0-0.1,0.1-0.1,0.2-0.1c0.1,0,0.1,0,0.2,0c0.7,0.1,1.4,0.1,2,0
		c0.1,0,0.2,0,0.2,0c0.1,0,0.2,0,0.2,0.2c0,0.2,0,0.2-0.2,0.3c-0.1,0-0.2,0.1-0.4,0.1c-0.3,0.1-0.4,0.3-0.4,0.5c0,0.2,0,0.3,0,0.5
		c0,1.7,0,3.3,0,5c0,0.1,0,0.3,0,0.4c0,0.3,0.2,0.5,0.5,0.6c0.7,0.2,1.4,0.2,2.1,0c0.4-0.1,0.6-0.4,0.8-0.7c0.1-0.1,0.1-0.2,0.2-0.3
		c0.1-0.1,0.2-0.2,0.3-0.1c0.2,0.1,0.2,0.2,0.1,0.3c0,0.2-0.1,0.4-0.1,0.6c0,0.2,0,0.4-0.1,0.5c0,0.3,0,0.4-0.4,0.4
		C104.1,101.2,103.3,101.2,102.4,101.2z"/>
	<path fill="#6B6B6B" d="M95.1,101.2c-0.8,0-1.7,0-2.5,0c-0.1,0-0.1,0-0.2,0c-0.1,0-0.1-0.1-0.2-0.2c0-0.1,0-0.2,0.1-0.2
		c0.1,0,0.2,0,0.2-0.1c0.4-0.1,0.5-0.2,0.5-0.6c0-0.1,0-0.2,0-0.2c0-1.8,0-3.5,0-5.3c0-0.2,0-0.3,0-0.5c0-0.3-0.2-0.5-0.5-0.6
		c-0.1,0-0.2-0.1-0.3-0.2c-0.1-0.1-0.1-0.1-0.1-0.2c0-0.1,0.1-0.1,0.2-0.1c0.1,0,0.1,0,0.2,0c0.7,0.1,1.4,0,2.2,0
		c0.2,0,0.4-0.1,0.4,0.2c0,0.2,0,0.2-0.3,0.3c-0.1,0-0.2,0.1-0.3,0.1c-0.2,0.1-0.3,0.2-0.3,0.4c0,0.1,0,0.2,0,0.4c0,1.7,0,3.4,0,5.2
		c0,0.1,0,0.2,0,0.3c0,0.3,0.2,0.5,0.5,0.6c0.7,0.2,1.4,0.2,2.1,0c0.4-0.1,0.6-0.4,0.8-0.7c0.1-0.1,0.1-0.2,0.2-0.3
		c0.1-0.1,0.2-0.1,0.3-0.1c0.1,0,0.1,0.1,0.1,0.2c-0.1,0.3-0.1,0.6-0.2,0.9c-0.1,0.2,0.1,0.5-0.1,0.7c-0.2,0.1-0.4,0-0.7,0
		C96.5,101.2,95.8,101.2,95.1,101.2z"/>
	<path fill="#6F6F6F" d="M54.6,101.2c-0.4,0-0.8,0-1.2,0c-0.1,0-0.3,0-0.3-0.2c0-0.2,0.1-0.2,0.2-0.2c0.1,0,0.3-0.1,0.4-0.1
		c0.3-0.1,0.4-0.2,0.4-0.5c0-0.1,0-0.2,0-0.3c0-1.8,0-3.7,0-5.5c0-0.6-0.1-0.7-0.7-0.9c-0.1,0-0.1,0-0.2-0.1c-0.1,0-0.1-0.1-0.1-0.2
		c0-0.1,0.1-0.1,0.2-0.1c0.1,0,0.2,0,0.3,0c0.7,0.1,1.5,0,2.2,0c0.1,0,0.3-0.1,0.4,0.1c0.1,0.2,0,0.3-0.3,0.4
		c-0.1,0-0.2,0.1-0.2,0.1c-0.4,0.2-0.5,0.3-0.5,0.7c0,1.8,0,3.7,0,5.5c0,0.6,0.1,0.7,0.6,0.9c0,0,0.1,0,0.1,0c0.1,0,0.3,0.1,0.3,0.3
		c0,0.2-0.2,0.2-0.3,0.2C55.4,101.2,55,101.2,54.6,101.2C54.6,101.2,54.6,101.2,54.6,101.2z"/>
	<path fill="#6C6C6C" d="M88.8,101.2c-0.4,0-0.8,0-1.2,0c-0.1,0-0.3,0.1-0.4-0.2c0-0.2,0.2-0.2,0.3-0.3c0.1,0,0.2-0.1,0.4-0.1
		c0.2-0.1,0.3-0.2,0.4-0.4c0-0.1,0-0.2,0-0.3c0-1.8,0-3.7,0-5.5c0-0.6-0.1-0.7-0.7-0.9c-0.1,0-0.1,0-0.2,0c-0.1,0-0.1-0.1-0.1-0.2
		c0-0.1,0.1-0.2,0.2-0.2c0.1,0,0.2,0,0.2,0c0.8,0.1,1.5,0,2.3,0c0.1,0,0.1,0,0.2,0c0.1,0,0.2,0,0.2,0.1c0,0.1,0,0.2-0.1,0.3
		c-0.1,0.1-0.3,0.1-0.4,0.2c-0.5,0.2-0.5,0.3-0.5,0.8c0,1.8,0,3.6,0,5.4c0,0.7,0.1,0.7,0.7,0.9c0.1,0,0.1,0,0.2,0.1
		c0.1,0.1,0.1,0.1,0.1,0.2c0,0.1-0.1,0.2-0.2,0.2c-0.3,0-0.6,0-0.8,0C89.2,101.2,89,101.2,88.8,101.2
		C88.8,101.2,88.8,101.2,88.8,101.2z"/>
	<path fill="#727272" d="M63.2,109.9c0.1,0.1,0.3,0.1,0.5,0.2c0.6,0.2,1.1,0.3,1.7,0.4c0.4,0.1,0.8,0.2,1.2-0.1
		c-0.1,0.4-0.5,0.6-0.9,0.6c-0.6-0.1-1.2-0.2-1.7-0.4c-0.7-0.2-1.5-0.5-2.2-0.8c-0.9-0.4-1.4-1.4-1.2-2.4c0.2-1,1.2-1.8,2.3-1.7
		c1,0.1,1.8,0.9,1.8,2c0,0.9-0.4,1.5-1.1,1.9C63.4,109.8,63.3,109.8,63.2,109.9C63.2,109.9,63.2,109.9,63.2,109.9z M61.1,107.8
		c0,0.6,0.2,1.2,0.7,1.7c0.6,0.5,1.3,0.4,1.8-0.2c0.5-0.7,0.5-1.8,0.1-2.5c-0.3-0.5-0.8-0.8-1.4-0.7c-0.6,0.1-0.9,0.4-1.1,0.9
		C61.1,107.2,61.1,107.5,61.1,107.8z"/>
	<path fill="#727272" d="M51.6,107.7c0.3,0,0.5,0,0.8,0c0.2,0,0.3-0.1,0.3-0.3c0-0.3,0-0.7,0-1c0-0.2-0.1-0.3-0.3-0.3
		c0,0-0.1,0-0.1,0c-0.1,0-0.1-0.1-0.1-0.1c0,0,0-0.1,0.1-0.1c0.5,0,0.9,0,1.4,0c0.1,0,0.1,0.1,0.1,0.1c0,0.1,0,0.1-0.1,0.1
		c-0.3,0.1-0.4,0.1-0.4,0.5c0,0.9,0,1.8,0,2.7c0,0.4,0,0.4,0.4,0.5c0.1,0,0.1,0,0.1,0.1c0,0.1-0.1,0.1-0.2,0.1c-0.4,0-0.9,0-1.3,0
		c-0.1,0-0.2,0-0.2-0.1c0-0.1,0.1-0.1,0.1-0.1c0.4-0.1,0.4-0.1,0.4-0.4c0-0.4,0-0.7,0-1.1c0-0.2-0.1-0.2-0.2-0.2c-0.6,0-1.2,0-1.8,0
		c-0.1,0-0.2,0.1-0.2,0.2c0,0.4,0,0.9,0,1.3c0,0.2,0.1,0.3,0.2,0.3c0,0,0.1,0,0.1,0c0.1,0,0.1,0,0.1,0.1c0,0.1,0,0.1-0.1,0.1
		c-0.4,0-0.9,0-1.3,0c-0.1,0-0.1,0-0.1-0.1c0-0.1,0-0.1,0.1-0.1c0,0,0.1,0,0.1,0c0.3,0,0.3-0.1,0.3-0.3c0-0.4,0-0.8,0-1.2
		c0-0.5,0-1.1,0-1.6c0-0.3,0-0.3-0.3-0.4c-0.1,0-0.2,0-0.2-0.1s0.1-0.1,0.2-0.1c0.4,0,0.9,0,1.3,0c0.1,0,0.2,0,0.2,0.1
		c0,0.1-0.1,0.1-0.2,0.1c-0.3,0.1-0.4,0.1-0.4,0.4c0,0.3,0,0.6,0,0.9c0,0.3,0,0.3,0.3,0.3C51.1,107.7,51.3,107.7,51.6,107.7
		C51.6,107.7,51.6,107.7,51.6,107.7z"/>
	<path fill="#727272" d="M98.8,108c0.4,0.5,0.7,1,1,1.4c0.1,0.1,0.3,0.2,0.4,0.2c0.1,0,0.1,0,0.1,0.1c0,0.1-0.1,0.1-0.2,0.1
		c0,0-0.1,0-0.1,0c-0.7,0-0.7,0-1.1-0.6c-0.2-0.3-0.3-0.5-0.5-0.8c-0.1-0.1-0.2-0.2-0.3-0.3c-0.3-0.2-0.5-0.1-0.5,0.3
		c0,0.3,0,0.6,0,0.9c0,0.3,0,0.3,0.3,0.4c0.1,0,0.1,0,0.2,0c0,0,0,0.1,0,0.1c0,0,0,0.1-0.1,0.1c-0.5,0-0.9,0-1.4,0
		c-0.1,0-0.1-0.1-0.1-0.1c0-0.1,0-0.1,0.1-0.1c0.1,0,0.2,0,0.3-0.1c0.1-0.1,0.1-0.3,0.1-0.4c0-0.9,0-1.7,0-2.6c0-0.3,0-0.3-0.4-0.5
		c-0.1,0-0.1,0-0.1-0.1c0-0.1,0-0.1,0.1-0.1c0.7,0,1.3-0.1,2,0c0.7,0.1,1,0.6,1,1.2c0,0.4-0.2,0.6-0.5,0.8
		C99,107.9,98.9,107.9,98.8,108z M97.7,106.9c0,0.2,0,0.5,0,0.7c0,0.2,0.1,0.2,0.2,0.2c0.3,0,0.6,0,0.8-0.2c0.3-0.2,0.4-0.5,0.4-0.9
		c0-0.4-0.3-0.6-0.6-0.7c-0.2-0.1-0.4-0.1-0.6-0.1c-0.2,0-0.3,0.1-0.3,0.3C97.7,106.5,97.7,106.7,97.7,106.9z"/>
	<path fill="#727272" d="M82.7,108c0.4,0.5,0.7,1,1,1.4c0.1,0.2,0.3,0.2,0.5,0.3c0.1,0,0.1,0.1,0.1,0.1c0,0.1-0.1,0.1-0.2,0.1
		c-0.8,0.1-0.8,0.1-1.2-0.6c-0.2-0.3-0.3-0.5-0.5-0.8c-0.1-0.1-0.2-0.3-0.4-0.3c-0.3-0.1-0.4,0-0.4,0.3c0,0.3,0,0.6,0,0.8
		c0,0.3,0,0.3,0.4,0.4c0,0,0,0,0,0c0.1,0,0.1,0.1,0.1,0.1c0,0.1-0.1,0.1-0.1,0.1c-0.4,0-0.9,0-1.3,0c-0.1,0-0.1,0-0.1-0.1
		c0-0.1,0-0.1,0.1-0.1c0.4,0,0.4-0.3,0.4-0.6c0-0.8,0-1.7,0-2.5c0-0.3,0-0.3-0.4-0.5c-0.1,0-0.1-0.1-0.1-0.1c0-0.1,0.1-0.1,0.1-0.1
		c0.7,0,1.3-0.1,2,0c0.7,0.1,1,0.6,1,1.2c0,0.4-0.2,0.6-0.6,0.8C83,107.9,82.8,107.9,82.7,108z M81.6,107
		C81.6,107,81.6,107,81.6,107c0,0.2,0,0.4,0,0.7c0,0.1,0.1,0.2,0.2,0.2c0.3,0,0.7,0,0.9-0.3c0.5-0.4,0.4-1.2-0.2-1.5
		c-0.2-0.1-0.3-0.1-0.5-0.1c-0.3,0-0.3,0.1-0.4,0.3C81.6,106.6,81.6,106.8,81.6,107z"/>
	<path fill="#727272" d="M95.9,107.9c0,1.2-0.9,2.1-2,2.1c-1.2,0-2.1-0.9-2.1-2.1c0-1,0.8-2.2,2.1-2.2
		C95,105.8,95.9,106.7,95.9,107.9z M92.4,107.7c0,0.7,0.2,1.3,0.8,1.7c0.7,0.5,1.5,0.3,1.9-0.5c0.1-0.2,0.2-0.4,0.2-0.7
		c0.1-0.8-0.1-1.5-0.7-2c-0.6-0.5-1.4-0.4-1.8,0.2C92.5,106.9,92.4,107.3,92.4,107.7z"/>
	<path fill="#727272" d="M73.8,107.9c0,1.2-0.9,2.1-2,2.1c-1.2,0-2.1-0.9-2.1-2.1c0-1,0.8-2.2,2.1-2.1
		C72.9,105.8,73.8,106.7,73.8,107.9z M70.3,107.8c0,0.7,0.2,1.3,0.8,1.7c0.7,0.5,1.5,0.3,1.9-0.5c0.2-0.5,0.3-1,0.2-1.5
		c-0.1-0.6-0.4-1-0.8-1.3c-0.6-0.4-1.2-0.3-1.7,0.3C70.4,106.9,70.3,107.3,70.3,107.8z"/>
	<path fill="#727272" d="M86.1,109.9c-0.5,0-0.9,0-1.4,0c-0.1,0-0.2,0-0.2-0.1c0-0.1,0.1-0.1,0.2-0.2c0.4-0.1,0.4-0.1,0.4-0.4
		c0-0.9,0-1.8,0-2.7c0-0.3,0-0.3-0.4-0.4c-0.1,0-0.2,0-0.2-0.1c0-0.1,0.1-0.1,0.2-0.1c0.8,0,1.7,0,2.5,0c0.1,0,0.2,0,0.2,0.1
		c0.1,0.3,0.2,0.5,0.2,0.8c0,0.1,0,0.1-0.1,0.1c-0.1,0-0.1,0-0.1,0c-0.1-0.1-0.2-0.2-0.3-0.4c-0.2-0.3-0.5-0.4-0.8-0.4
		c-0.2,0-0.6-0.1-0.7,0c-0.2,0.2,0,0.5-0.1,0.7c0,0.1,0,0.3,0,0.4c0,0.2-0.1,0.4,0.1,0.5c0.4,0.1,0.7,0,0.8-0.3c0,0,0-0.1,0-0.1
		c0-0.1,0-0.1,0.1-0.1c0.1,0,0.1,0.1,0.1,0.1c0,0.1,0,0.2,0,0.3c0,0.2,0,0.4,0,0.6c0,0.1,0.1,0.2-0.1,0.3c-0.2,0-0.2-0.1-0.2-0.2
		c-0.1-0.2-0.1-0.3-0.3-0.3c-0.6-0.1-0.6-0.1-0.6,0.6c0,0.2,0,0.5,0,0.7c0,0.3,0.1,0.4,0.4,0.5c0.3,0.1,0.6,0,1,0
		c0.3-0.1,0.5-0.3,0.7-0.5c0.1-0.1,0.1-0.3,0.3-0.2c0.2,0.1,0,0.2,0,0.4c-0.2,0.7-0.2,0.7-0.9,0.7C86.7,109.9,86.4,109.9,86.1,109.9
		C86.1,109.9,86.1,109.9,86.1,109.9z"/>
	<path fill="#727272" d="M68.3,107.6c0-0.4,0-0.7,0-1.1c0-0.3,0-0.3-0.4-0.4c-0.1,0-0.2,0-0.2-0.1c0-0.1,0.1-0.1,0.2-0.1
		c0.3,0,0.7,0,1,0c0.1,0,0.1,0,0.2,0.1c0,0.1-0.1,0.1-0.1,0.1c-0.3,0.1-0.3,0.1-0.3,0.4c0,0.5,0,1.1,0,1.6c0,0.3,0,0.6-0.1,0.8
		c-0.1,0.3-0.2,0.6-0.5,0.8c-0.5,0.4-1.6,0.4-2.1,0c-0.3-0.2-0.4-0.5-0.4-0.8c0-0.3,0-0.7-0.1-1c0-0.5,0-0.9,0-1.4
		c0-0.2,0-0.4-0.3-0.3c-0.1,0-0.2,0-0.2-0.1c0-0.1,0.1-0.1,0.2-0.1c0.4,0,0.8,0,1.2,0c0.1,0,0.2,0,0.2,0.1c0,0.1-0.1,0.1-0.1,0.1
		c-0.4,0.1-0.4,0.1-0.4,0.5c0,0.7,0,1.4,0,2.1c0.1,0.8,0.6,1.2,1.4,1c0.4-0.1,0.7-0.4,0.8-0.8C68.4,108.4,68.3,108,68.3,107.6z"/>
	<path fill="#727272" d="M54.8,107.5c0-0.3,0-0.7,0-1c0-0.3,0-0.3-0.3-0.4c-0.1,0-0.2,0-0.2-0.1c0-0.1,0.1-0.1,0.2-0.1
		c0.4,0,0.8,0,1.2,0c0.1,0,0.2,0,0.2,0.1c0,0.1-0.1,0.1-0.2,0.1c-0.4,0.1-0.4,0.1-0.4,0.4c0,0.7,0,1.4,0,2.2c0.1,0.8,0.6,1.2,1.4,1
		c0.4-0.1,0.6-0.4,0.7-0.8c0-0.1,0-0.2,0-0.3c0-0.7,0-1.4,0-2.1c0-0.3,0-0.3-0.4-0.4c-0.1,0-0.2,0-0.1-0.2c0-0.1,0.1-0.1,0.2-0.1
		c0.4,0,0.7,0,1.1,0c0.1,0,0.1,0,0.2,0.1c0,0.1,0,0.1-0.1,0.1c-0.4,0.1-0.4,0.1-0.4,0.5c0,0.6,0,1.1,0,1.7c0,0.2,0,0.4-0.1,0.7
		c-0.1,0.3-0.2,0.5-0.4,0.7c-0.5,0.5-1.6,0.5-2.2,0.1c-0.3-0.2-0.4-0.5-0.4-0.8C54.8,108.4,54.8,108,54.8,107.5z"/>
	<path fill="#727272" d="M46.8,105.8c0.3,0,0.6,0,0.8,0c0.3,0,0.5,0.1,0.8,0.2c0.7,0.5,0.6,1.5-0.1,1.9c-0.3,0.2-0.7,0.2-1,0.2
		c-0.5,0-0.5-0.1-0.5,0.5c0,0.2,0,0.5,0,0.7c0,0.2,0.1,0.3,0.3,0.3c0.1,0,0.1,0,0.2,0c0.1,0,0.1,0.1,0.1,0.1c0,0.1-0.1,0.1-0.1,0.1
		c0,0-0.1,0-0.1,0c-0.4,0-0.9,0-1.3,0c-0.1,0-0.2,0-0.2-0.1c0-0.1,0.1-0.1,0.2-0.1c0.3-0.1,0.3-0.1,0.3-0.4c0-0.9,0-1.9,0-2.8
		c0-0.3,0-0.3-0.3-0.4c0,0-0.1,0-0.1,0c-0.1,0-0.1-0.1-0.1-0.1c0-0.1,0-0.1,0.1-0.1c0.1,0,0.2,0,0.3,0
		C46.3,105.8,46.6,105.8,46.8,105.8z M46.8,107C46.8,107,46.8,107,46.8,107c0,0.2,0,0.4,0,0.5c0,0.4,0,0.4,0.4,0.4
		c0.1,0,0.2,0,0.2,0c0.4-0.1,0.8-0.4,0.8-0.8c0-0.5-0.2-0.9-0.7-1c-0.2,0-0.3,0-0.5,0c-0.2,0-0.2,0.1-0.2,0.2
		C46.8,106.5,46.8,106.8,46.8,107z"/>
	<path fill="#727272" d="M78,105.9c0,0.4,0.1,0.7,0.1,1.1c0,0.1,0,0.1-0.1,0.1c-0.1,0-0.1,0-0.1-0.1c-0.1-0.1-0.1-0.2-0.2-0.3
		c-0.2-0.3-0.5-0.6-0.9-0.7c-0.6-0.2-1.2,0.1-1.5,0.7c-0.4,0.8-0.2,1.9,0.5,2.6c0.5,0.5,1.4,0.4,2-0.1c0.1-0.1,0.2-0.2,0.3-0.3
		c0,0,0.1-0.1,0.1,0c0.1,0,0,0.1,0,0.1c-0.3,0.4-0.7,0.7-1.2,0.8c-1.6,0.3-2.7-0.9-2.4-2.5c0.2-1.2,1.3-1.9,2.5-1.6
		c0.1,0,0.3,0.1,0.4,0.1C77.7,106.1,77.8,106.1,78,105.9C77.9,105.9,78,105.9,78,105.9z"/>
	<path fill="#727272" d="M90.9,106.9c-0.2-0.1-0.2-0.2-0.2-0.4c-0.2-0.3-0.4-0.5-0.8-0.5c-0.3,0-0.5,0.1-0.6,0.4
		c-0.1,0.3,0,0.6,0.2,0.8c0.1,0.1,0.3,0.2,0.4,0.2c0.1,0.1,0.3,0.1,0.4,0.2c0.8,0.3,1.1,1.1,0.7,1.9c-0.3,0.5-0.9,0.7-1.5,0.5
		c-0.1,0-0.2-0.1-0.3-0.2c-0.1-0.1-0.3-0.1-0.4,0c0-0.4,0-0.8,0.1-1.2c0.2,0,0.2,0.2,0.2,0.3c0.1,0.3,0.3,0.6,0.6,0.8
		c0.4,0.2,0.8,0.1,1-0.3c0.2-0.3,0.1-0.8-0.3-1.1c-0.1-0.1-0.3-0.2-0.5-0.2c-0.2-0.1-0.4-0.2-0.6-0.3c-0.4-0.3-0.6-0.8-0.5-1.3
		c0.1-0.5,0.5-0.8,1.1-0.8c0.2,0,0.4,0,0.6,0.1c0.2,0.1,0.4-0.2,0.4,0.1c0,0.1,0,0.3,0,0.5C90.9,106.6,91,106.7,90.9,106.9z"/>
	<path fill="#727272" d="M102,107.8c0-0.5,0-1,0-1.5c0-0.2-0.1-0.3-0.3-0.3c-0.1,0-0.3,0-0.4,0c-0.3,0-0.6,0.1-0.7,0.4
		c0,0.1-0.1,0.1-0.1,0.2c0,0.1-0.1,0.1-0.2,0.1c-0.1,0-0.1-0.1,0-0.1c0.1-0.3,0.1-0.6,0.2-0.8c0-0.1,0.1-0.2,0.2-0.1
		c0.2,0.1,0.4,0.1,0.6,0.1c0.6,0,1.3,0,1.9,0c0.2,0,0.4,0,0.6-0.1c0.1-0.1,0.2,0,0.2,0.1c0.1,0.3,0.1,0.6,0.1,0.9
		c0,0.1,0,0.1-0.1,0.1c0,0-0.1,0-0.1,0c0,0,0,0,0-0.1c-0.2-0.7-0.7-0.6-1.2-0.6c-0.2,0-0.2,0.1-0.2,0.2c0,0.2,0,0.3,0,0.5
		c0,0.8,0,1.6,0,2.4c0,0.4,0,0.4,0.4,0.5c0.1,0,0.2,0,0.2,0.1c0,0.1-0.1,0.1-0.2,0.1c-0.5,0-0.9,0-1.4,0c-0.1,0-0.2,0-0.2-0.1
		c0-0.1,0.1-0.1,0.1-0.1c0,0,0.1,0,0.1,0c0.3,0,0.3,0,0.3-0.4C102,108.8,102,108.3,102,107.8C102,107.8,102,107.8,102,107.8z"/>
	<path fill="#F9FAFB" d="M26.9,95.5c0-0.4,0-0.9,0-1.3c0-0.4,0.1-0.6,0.6-0.6c0.4,0,0.8,0,1.2,0.1c0.5,0.2,0.8,0.5,0.9,1
		c0,0.2,0.1,0.4,0.1,0.6c0,0.8-0.4,1.3-1.2,1.6c-0.4,0.1-0.9,0.2-1.3,0.2c-0.2,0-0.3-0.1-0.3-0.3C27,96.4,26.9,95.9,26.9,95.5
		C26.9,95.5,26.9,95.5,26.9,95.5z"/>
	<path fill="#F9FAFB" d="M68.7,93.5c0.3,0,0.6,0.1,0.9,0.2c0.4,0.2,0.7,0.4,0.8,0.9c0.1,0.3,0.1,0.6,0.1,0.9c-0.1,0.6-0.4,1-1,1.3
		C69,97,68.5,97,68,97.1c-0.2,0-0.3,0-0.3-0.2c0-0.9,0-1.8,0-2.7c0-0.4,0.1-0.5,0.5-0.6C68.4,93.6,68.5,93.6,68.7,93.5z"/>
	<path fill="#F9FAFB" d="M110.5,94.8c0.4,1,0.9,1.9,1.3,2.9c-0.6,0.1-2,0.1-2.5,0C109.3,97.3,110.3,95.1,110.5,94.8z"/>
	<path fill="#FAFBFC" d="M20.5,93.6c0.2,0,0.4,0,0.7,0.1c0.7,0.2,1,0.6,1.1,1.2c0,0.2,0,0.5,0,0.7c0,0.8-0.5,1.4-1.3,1.6
		c-0.4,0.1-0.9,0.1-1.3,0.1c-0.2,0-0.3-0.1-0.3-0.3c0-0.9,0-1.9,0-2.8c0-0.4,0.1-0.5,0.6-0.6C20.1,93.6,20.3,93.6,20.5,93.6z"/>
	<path fill="#FAFBFC" d="M61.1,107.8c0-0.3,0-0.6,0.1-0.8c0.2-0.5,0.5-0.9,1.1-0.9c0.6-0.1,1,0.2,1.4,0.7c0.4,0.7,0.4,1.8-0.1,2.5
		c-0.5,0.6-1.2,0.7-1.8,0.2C61.3,109,61.1,108.4,61.1,107.8z"/>
	<path fill="#F9FAFB" d="M97.7,106.9c0-0.2,0-0.4,0-0.6c0-0.2,0.1-0.3,0.3-0.3c0.2,0,0.4,0,0.6,0.1c0.3,0.1,0.6,0.3,0.6,0.7
		c0,0.4-0.1,0.6-0.4,0.9c-0.2,0.2-0.5,0.2-0.8,0.2c-0.2,0-0.2-0.1-0.2-0.2C97.7,107.4,97.7,107.2,97.7,106.9z"/>
	<path fill="#F4F5F6" d="M81.6,107c0-0.2,0-0.4,0-0.6c0-0.3,0.1-0.3,0.4-0.3c0.2,0,0.4,0,0.5,0.1c0.7,0.2,0.8,1,0.2,1.5
		c-0.3,0.2-0.6,0.3-0.9,0.3c-0.1,0-0.2-0.1-0.2-0.2C81.6,107.4,81.6,107.2,81.6,107C81.6,107,81.6,107,81.6,107z"/>
	<path fill="#FAFBFC" d="M92.4,107.7c0-0.4,0.1-0.8,0.4-1.2c0.5-0.7,1.2-0.8,1.8-0.2c0.6,0.5,0.8,1.2,0.7,2c0,0.2-0.1,0.5-0.2,0.7
		c-0.4,0.8-1.2,1-1.9,0.5C92.6,109,92.4,108.4,92.4,107.7z"/>
	<path fill="#FAFBFC" d="M70.3,107.8c0-0.5,0.1-0.9,0.4-1.2c0.4-0.6,1.1-0.7,1.7-0.3c0.5,0.3,0.7,0.8,0.8,1.3c0.1,0.5,0,1-0.2,1.5
		c-0.4,0.7-1.2,0.9-1.9,0.5C70.5,109.1,70.3,108.5,70.3,107.8z"/>
	<path fill="#F9FAFB" d="M46.8,107c0-0.2,0-0.5,0-0.7c0-0.2,0.1-0.2,0.2-0.2c0.2,0,0.3,0,0.5,0c0.5,0.1,0.7,0.5,0.7,1
		c0,0.4-0.3,0.8-0.8,0.8c-0.1,0-0.2,0-0.2,0c-0.4,0-0.4,0-0.4-0.4C46.8,107.3,46.8,107.2,46.8,107C46.8,107,46.8,107,46.8,107z"/>
</g>
</svg>
