<svg xmlns="http://www.w3.org/2000/svg" width="75.178" height="50" viewBox="0 0 75.178 50">
  <g id="Group_4637" data-name="Group 4637" transform="translate(-140 -10)">
    <path id="Path_1" data-name="Path 1" d="M153.133,60.659a5.276,5.276,0,1,1-5.275-5.275,5.275,5.275,0,0,1,5.275,5.275" transform="translate(62.045 -45.384)" fill="#ffc20e"/>
    <path id="Path_2" data-name="Path 2" d="M125.945,68.955a8.393,8.393,0,1,1,8.393,8.393,8.393,8.393,0,0,1-8.393-8.393" transform="translate(69.631 -47.745)" fill="#ed1d24"/>
    <path id="Path_3" data-name="Path 3" d="M150.227,67.809a8.4,8.4,0,0,0-7.084-7.084,5.277,5.277,0,0,0,7.084,7.084" transform="translate(62.045 -47.819)" fill="#f68b1f"/>
    <path id="Path_4" data-name="Path 4" d="M41.884,90.764a5.276,5.276,0,0,1-8.473-5.616L34.594,81.5h6.229a3.117,3.117,0,1,0,0-6.235h-4.2l1.987-6.116a3.117,3.117,0,1,0-5.929-1.927L30.064,75.27H26.915a3.117,3.117,0,1,0,0,6.235h1.124l-.557,1.716A11.51,11.51,0,0,0,45,96.225c-.077-.083-.153-.167-.228-.252a13.887,13.887,0,0,1-2.89-5.21" transform="translate(116.203 -49.801)" fill="#151f6d"/>
    <path id="Path_5" data-name="Path 5" d="M72.341,100.582q-.223.02-.452.02a5.275,5.275,0,1,1,0-10.551,3.118,3.118,0,0,0,0-6.235,11.511,11.511,0,0,0-1.547,22.917Z" transform="translate(99.524 -58.347)" fill="#151f6d"/>
    <path id="Path_6" data-name="Path 6" d="M100.512,84.382a11.511,11.511,0,0,0-14.5,7.39L78.7,114.265a3.117,3.117,0,1,0,5.93,1.927L91.938,93.7a5.275,5.275,0,1,1,.914,4.947l-2.079,6.4a11.511,11.511,0,1,0,9.739-20.659" transform="translate(91.241 -58.347)" fill="#151f6d"/>
  </g>
</svg>
