<?xml version="1.0" encoding="utf-8"?>
<!-- Generator: Adobe Illustrator 27.8.1, SVG Export Plug-In . SVG Version: 6.00 Build 0)  -->
<svg version="1.2" baseProfile="tiny" id="Layer_1" xmlns="http://www.w3.org/2000/svg" xmlns:xlink="http://www.w3.org/1999/xlink"
	 x="0px" y="0px" viewBox="0 0 150 150" overflow="visible" xml:space="preserve">
<g id="XMLID_1640_">
	<g id="XMLID_409_">
		<path id="XMLID_411_" fill="#0C81F6" d="M73.5,87.1c0.1,0,0.2,0.1,0.3,0.1c0.1,0.1,0.1,0.1,0.1,0.3c0,0.2-0.1,0.6-0.2,1.3
			c-0.1,0.8-0.2,1.7-0.3,2.6c-0.1,0.9-0.1,1.5-0.1,1.7c0,0.1-0.1,0.2-0.1,0.4c-0.1,0.1-0.2,0.2-0.3,0.2c-0.1,0-0.1-0.1-0.3-0.1
			c-0.1-0.1-0.1-0.1-0.1-0.3c0-0.1,0.1-0.4,0.1-1.1c0.1-0.5,0.1-0.9,0.1-1.1c0-0.1,0-0.2-0.1-0.3s-0.1-0.1-0.2-0.1s-0.4,0-0.8,0.1
			c-0.4,0-0.7,0.1-0.8,0.1c-0.1,0-0.4,0-0.9,0.1c-0.4,0-0.7,0.1-0.8,0.1c-0.1,0-0.1,0.2-0.1,0.6c-0.1,0.4-0.1,0.6-0.1,0.9
			c0,0.4-0.1,0.7-0.1,0.9c-0.1,0.2-0.1,0.4-0.3,0.4c-0.1,0-0.1-0.1-0.3-0.2c-0.1-0.1-0.1-0.2-0.1-0.4c0-0.1,0-0.3,0.1-0.6
			c0.1-0.4,0.2-1,0.4-1.9c0.1-0.9,0.2-1.9,0.4-3c0-0.1,0.1-0.1,0.1-0.2c0.1-0.1,0.1-0.1,0.2-0.1c0.3,0,0.4,0.2,0.4,0.6
			c0,0.2-0.1,0.6-0.1,1.1c-0.1,0.4-0.1,0.8-0.1,1c0,0.1,0,0.1,0.1,0.2c0.1,0.1,0.2,0.1,0.4,0.1c0.4,0,1.1-0.1,1.8-0.1
			c0.8-0.1,1.2-0.1,1.2-0.3c0.1-0.1,0.1-0.4,0.2-0.9c0.1-0.5,0.1-1,0.1-1.5c0-0.1,0.1-0.1,0.1-0.2C73.3,87.1,73.4,87.1,73.5,87.1z"
			/>
		<path id="XMLID_417_" fill="#0C81F6" d="M77.7,91.9c-0.4,0.5-0.8,0.9-1.2,1.2c-0.4,0.3-0.7,0.4-1,0.4c-0.2,0-0.4-0.1-0.6-0.3
			c-0.1-0.1-0.2-0.4-0.2-0.7c0-0.7,0.3-1.5,0.9-2.3c0.6-0.9,1.3-1.2,1.9-1.2c0.2,0,0.4,0.1,0.5,0.4c0,0.1,0.1,0.1,0.1,0.1
			c0.2,0,0.4,0.1,0.4,0.3c0,0.1,0,0.2-0.1,0.4c-0.1,0.8-0.2,1.4-0.2,1.7c0,0.6,0.1,1.1,0.4,1.2c0.1,0.1,0.2,0.1,0.2,0.2
			c0,0.1-0.1,0.1-0.1,0.3c-0.1,0.1-0.2,0.1-0.4,0.1c-0.2,0-0.4-0.1-0.5-0.4C77.8,92.8,77.7,92.5,77.7,91.9z M77.5,89.6
			c-0.4,0-0.8,0.4-1.2,1c-0.5,0.6-0.7,1.2-0.7,1.7c0,0.3,0.1,0.5,0.3,0.5c0.3,0,0.7-0.3,1.2-0.9c0.5-0.6,0.8-1.2,0.8-1.7
			C77.9,89.8,77.7,89.6,77.5,89.6z"/>
		<path id="XMLID_421_" fill="#0C81F6" d="M80.9,92.9c-0.1,0.5-0.3,1.2-0.4,2.1l-0.1,0.8c0,0.1-0.1,0.2-0.1,0.4s-0.1,0.1-0.2,0.1
			s-0.2-0.1-0.3-0.1c-0.1-0.1-0.1-0.1-0.1-0.2c0-0.1,0-0.4,0.1-0.6c0.5-2,0.7-3.8,0.7-5.3v-0.4c0-0.3,0.1-0.5,0.1-0.6
			c0.1-0.1,0.2-0.2,0.4-0.2c0.1,0,0.1,0.1,0.2,0.1c0.1,0.1,0.1,0.2,0.1,0.4c0,0.3,0,0.6-0.1,0.9C81.1,90.7,81,91,81,91
			c0.4-0.7,0.9-1.3,1.3-1.7c0.4-0.4,0.9-0.6,1.3-0.6c0.3,0,0.5,0.1,0.7,0.3s0.3,0.4,0.3,0.8c0,0.9-0.4,1.7-1,2.5
			c-0.7,0.7-1.4,1.1-2,1.1c-0.1,0-0.3-0.1-0.4-0.1C81.1,93.3,81,93.1,80.9,92.9z M83.4,89.7c-0.4,0-0.9,0.4-1.4,1.1
			c-0.6,0.7-0.9,1.3-0.9,1.7c0,0.1,0.1,0.2,0.1,0.3c0.1,0.1,0.3,0.1,0.4,0.1c0.4,0,0.9-0.3,1.4-0.9c0.5-0.6,0.8-1.2,0.8-1.7
			c0-0.2-0.1-0.4-0.1-0.4C83.7,89.7,83.6,89.7,83.4,89.7z"/>
		<path id="XMLID_442_" fill="#0C81F6" d="M86.6,92.9c-0.1,0.5-0.3,1.2-0.4,2.1L86,95.8c0,0.1-0.1,0.2-0.1,0.4
			c-0.1,0.1-0.1,0.1-0.2,0.1s-0.2-0.1-0.3-0.1c-0.1-0.1-0.1-0.1-0.1-0.2c0-0.1,0-0.4,0.1-0.6c0.5-2,0.7-3.8,0.7-5.3v-0.4
			c0-0.3,0.1-0.5,0.1-0.6c0.1-0.1,0.2-0.2,0.4-0.2c0.1,0,0.1,0.1,0.2,0.1c0.1,0.1,0.1,0.2,0.1,0.4c0,0.3,0,0.6-0.1,0.9
			c-0.1,0.5-0.1,0.7-0.1,0.8c0.4-0.7,0.9-1.3,1.3-1.7c0.4-0.4,0.9-0.6,1.3-0.6c0.3,0,0.5,0.1,0.7,0.3s0.3,0.4,0.3,0.8
			c0,0.9-0.4,1.7-1,2.5c-0.7,0.7-1.4,1.1-2,1.1c-0.1,0-0.3-0.1-0.4-0.1C86.7,93.3,86.6,93.1,86.6,92.9z M89.1,89.7
			c-0.4,0-0.9,0.4-1.4,1.1c-0.6,0.7-0.9,1.3-0.9,1.7c0,0.1,0.1,0.2,0.1,0.3c0.1,0.1,0.3,0.1,0.4,0.1c0.4,0,0.9-0.3,1.4-0.9
			c0.5-0.6,0.8-1.2,0.8-1.7c0-0.2-0.1-0.4-0.1-0.4C89.3,89.7,89.2,89.7,89.1,89.7z"/>
		<path id="XMLID_445_" fill="#0C81F6" d="M94.4,92c-0.5,0.4-0.9,0.7-1.3,0.9c-0.4,0.2-0.6,0.3-0.9,0.3c-0.3,0-0.5-0.1-0.6-0.4
			c-0.1-0.2-0.2-0.5-0.2-0.8c0-0.4,0.1-0.9,0.3-1.6c0.1-0.6,0.3-1,0.4-1.1c0.1-0.1,0.2-0.1,0.4-0.1c0.1,0,0.1,0.1,0.2,0.1
			s0.1,0.2,0.1,0.3s0,0.1-0.1,0.3c-0.1,0.3-0.2,0.4-0.2,0.4s-0.1,0.2-0.1,0.5c-0.1,0.3-0.1,0.6-0.1,0.9c0,0.1,0,0.2,0.1,0.4
			c0.1,0.2,0.1,0.3,0.3,0.3c0.1,0,0.4-0.1,0.6-0.1s0.5-0.2,0.7-0.4c0.3-0.2,0.4-0.4,0.6-0.5c0.1-0.1,0.1-0.3,0.2-0.4
			c0.1-0.1,0.1-0.5,0.1-1.1s0.1-0.8,0.4-0.8c0.1,0,0.2,0.1,0.3,0.1s0.1,0.2,0.1,0.4c0,0.2,0,0.4-0.1,0.6c0,0.4-0.1,0.6-0.1,0.7
			c-0.1,0.7-0.1,1.5-0.3,2.2c-0.1,0.8-0.4,1.4-0.7,1.9c-0.3,0.5-0.7,0.8-1.2,0.8s-1-0.1-1.4-0.4C91.2,95.2,91,95,91,94.8
			c0-0.1,0-0.1,0.1-0.3c0.1-0.1,0.1-0.1,0.1-0.1c0,0,0.1,0,0.1,0.1c0.4,0.6,0.9,0.8,1.7,0.8c0.4,0,0.7-0.4,1-1.1s0.4-1.4,0.4-1.9
			C94.4,92.2,94.4,92.1,94.4,92z"/>
		<path id="XMLID_447_" fill="#0C81F6" d="M102.1,92.5c0-0.1-0.2-0.4-0.6-0.6c-0.6-0.3-0.9-0.5-1.2-0.6c-0.2-0.1-0.3-0.4-0.3-0.6
			c0-0.6,0.3-1,0.8-1.4c0.6-0.4,1-0.5,1.4-0.5c0.2,0,0.4,0.1,0.5,0.1c0.1,0.1,0.1,0.2,0.1,0.4c0,0.1-0.1,0.1-0.1,0.2
			c-0.1,0.1-0.1,0.1-0.1,0.1s-0.1,0-0.1-0.1c-0.1-0.1-0.1-0.1-0.1-0.1c-0.1,0-0.4,0.1-0.9,0.3c-0.4,0.2-0.6,0.4-0.6,0.6
			c0,0.1,0.1,0.3,0.2,0.4c0.1,0.1,0.4,0.3,0.8,0.4c0.3,0.1,0.6,0.3,0.7,0.5c0.2,0.1,0.3,0.4,0.3,0.6c0,0.4-0.3,0.7-0.9,1
			c-0.6,0.2-1.2,0.4-1.7,0.4c-0.4,0-0.6-0.1-0.6-0.4c0-0.1,0.1-0.2,0.1-0.2c0.1-0.1,0.2-0.1,0.3-0.1c0.1,0,0.1,0,0.2,0.1
			c0.1,0,0.2,0.1,0.2,0.1c0.3,0,0.6-0.1,1-0.1C101.8,92.8,102,92.6,102.1,92.5z"/>
		<path id="XMLID_468_" fill="#0C81F6" d="M104.5,92.2c1-1.9,1.9-2.8,2.5-2.8c0.1,0,0.3,0.1,0.4,0.3c0.1,0.2,0.2,0.6,0.3,1.3
			c0.1,0.7,0.2,1.2,0.4,1.6c0.1,0.1,0.2,0.3,0.2,0.4s-0.1,0.1-0.1,0.2c-0.1,0.1-0.1,0.1-0.3,0.1c-0.2,0-0.4-0.1-0.6-0.4
			c-0.1-0.2-0.3-0.6-0.3-1.3c-0.1-0.6-0.1-0.9-0.1-1.2c-0.1-0.1-0.1-0.3-0.3-0.3c-0.3,0-0.9,0.7-1.7,2.2c-0.3,0.4-0.4,0.7-0.6,0.9
			s-0.2,0.2-0.4,0.2c-0.1,0-0.2,0-0.3-0.1c-0.1-0.1-0.1-0.1-0.1-0.3c0-0.1,0-0.2,0.1-0.4c0.4-1.7,0.6-3.5,0.8-5.2
			c0.1-0.4,0.1-0.6,0.2-0.8s0.1-0.2,0.2-0.2c0.1,0,0.2,0.1,0.3,0.1c0.1,0.1,0.1,0.2,0.1,0.4c0,0.5-0.1,1.2-0.4,2.1
			c-0.1,0.4-0.2,1-0.4,1.7C104.5,91.5,104.4,92,104.5,92.2C104.4,92.2,104.4,92.2,104.5,92.2L104.5,92.2z"/>
		<path id="XMLID_1199_" fill="#0C81F6" d="M110.5,93.6c-0.4,0-0.7-0.1-0.9-0.4c-0.2-0.3-0.4-0.6-0.4-1.1c0-0.7,0.2-1.4,0.7-2.1
			s1-1,1.7-1c0.4,0,0.8,0.1,1.1,0.5c0.3,0.4,0.4,0.7,0.4,1.2c0,0.7-0.3,1.4-0.9,1.9C111.6,93.3,111,93.6,110.5,93.6z M109.9,92
			c0,0.3,0.1,0.5,0.1,0.6c0.1,0.1,0.3,0.3,0.4,0.3c0.4,0,0.8-0.2,1.2-0.6c0.4-0.4,0.6-0.9,0.6-1.5c0-0.4-0.1-0.6-0.2-0.8
			c-0.1-0.2-0.4-0.3-0.6-0.3c-0.4,0-0.8,0.3-1.2,0.8C110,91,109.9,91.5,109.9,92z"/>
		<path id="XMLID_1639_" fill="#0C81F6" d="M114.9,92.9c-0.1,0.5-0.3,1.2-0.4,2.1l-0.1,0.8c0,0.1-0.1,0.2-0.1,0.4s-0.1,0.1-0.2,0.1
			c-0.1,0-0.2-0.1-0.3-0.1s-0.1-0.1-0.1-0.2c0-0.1,0-0.4,0.1-0.6c0.5-2,0.7-3.8,0.7-5.3v-0.4c0-0.3,0.1-0.5,0.1-0.6
			c0.1-0.1,0.2-0.2,0.4-0.2c0.1,0,0.1,0.1,0.2,0.1c0.1,0.1,0.1,0.2,0.1,0.4c0,0.3,0,0.6-0.1,0.9c-0.1,0.5-0.1,0.7-0.1,0.8
			c0.4-0.7,0.9-1.3,1.3-1.7c0.4-0.4,0.9-0.6,1.3-0.6c0.3,0,0.5,0.1,0.7,0.3s0.3,0.4,0.3,0.8c0,0.9-0.4,1.7-1,2.5
			c-0.7,0.7-1.4,1.1-2,1.1c-0.1,0-0.3-0.1-0.4-0.1C115.1,93.3,115.1,93.1,114.9,92.9z M117.5,89.7c-0.4,0-0.9,0.4-1.4,1.1
			c-0.6,0.7-0.9,1.3-0.9,1.7c0,0.1,0.1,0.2,0.1,0.3c0.1,0.1,0.3,0.1,0.4,0.1c0.4,0,0.9-0.3,1.4-0.9s0.8-1.2,0.8-1.7
			c0-0.2-0.1-0.4-0.1-0.4C117.7,89.7,117.6,89.7,117.5,89.7z"/>
		<path id="XMLID_1643_" fill="#0C81F6" d="M120.6,92.9c-0.1,0.5-0.3,1.2-0.4,2.1l-0.1,0.8c0,0.1-0.1,0.2-0.1,0.4s-0.1,0.1-0.2,0.1
			c-0.1,0-0.2-0.1-0.3-0.1c-0.1-0.1-0.1-0.1-0.1-0.2c0-0.1,0-0.4,0.1-0.6c0.5-2,0.7-3.8,0.7-5.3v-0.4c0-0.3,0.1-0.5,0.1-0.6
			c0.1-0.1,0.2-0.2,0.4-0.2c0.1,0,0.1,0.1,0.2,0.1c0.1,0.1,0.1,0.2,0.1,0.4c0,0.3,0,0.6-0.1,0.9c-0.1,0.5-0.1,0.7-0.1,0.8
			c0.4-0.7,0.9-1.3,1.3-1.7c0.4-0.4,0.9-0.6,1.3-0.6c0.3,0,0.5,0.1,0.7,0.3s0.3,0.4,0.3,0.8c0,0.9-0.4,1.7-1,2.5
			c-0.7,0.7-1.4,1.1-2,1.1c-0.1,0-0.3-0.1-0.4-0.1C120.8,93.3,120.6,93.1,120.6,92.9z M123.1,89.7c-0.4,0-0.9,0.4-1.4,1.1
			c-0.6,0.7-0.9,1.3-0.9,1.7c0,0.1,0.1,0.2,0.1,0.3c0.1,0.1,0.3,0.1,0.4,0.1c0.4,0,0.9-0.3,1.4-0.9s0.8-1.2,0.8-1.7
			c0-0.2-0.1-0.4-0.1-0.4C123.4,89.7,123.2,89.7,123.1,89.7z"/>
		<path id="XMLID_1646_" fill="#0C81F6" d="M126.2,92.5c0,0.2,0,0.4,0.1,0.7c0,0.1,0,0.1,0,0.1s-0.1,0.1-0.1,0.2
			c-0.1,0.1-0.2,0.1-0.3,0.1c-0.3,0-0.4-0.2-0.4-0.7s0.1-1.3,0.3-2.4c0.1-0.4,0.1-0.6,0.1-0.7c0-0.1,0-0.3,0.1-0.4
			c0.1-0.1,0.1-0.2,0.3-0.2c0.1,0,0.2,0,0.4,0.1c0.1,0.1,0.1,0.1,0.1,0.2c0,0.1,0,0.2-0.1,0.3c-0.2,0.7-0.4,1.2-0.4,1.6
			C126.2,91.8,126.2,92,126.2,92.5z M126.7,87.9c-0.1,0-0.1-0.1-0.1-0.2c0-0.1,0-0.1-0.1-0.1c-0.1-0.1-0.1-0.4-0.1-0.4
			c0-0.1,0.1-0.2,0.2-0.4c0.1-0.1,0.3-0.1,0.4-0.1c0.1,0,0.1,0,0.3,0.1c0.1,0.1,0.1,0.1,0.1,0.1c0,0.1,0,0.2-0.1,0.4
			c-0.1,0.2-0.1,0.4-0.3,0.4C126.9,87.9,126.8,87.9,126.7,87.9z"/>
		<path id="XMLID_1649_" fill="#0C81F6" d="M130.8,90.2c-0.1,0-0.3,0.1-0.4,0.3c-0.1,0.2-0.4,0.6-0.8,1.2c-0.4,0.9-0.7,1.4-0.9,1.5
			c-0.1,0.1-0.2,0.2-0.4,0.2c-0.3,0-0.5-0.1-0.5-0.4c0-0.1,0-0.3,0.1-0.6c0.1-0.8,0.2-1.7,0.2-2.6c0-0.1,0.1-0.2,0.1-0.4
			c0.1-0.1,0.1-0.2,0.3-0.2c0.1,0,0.2,0.1,0.3,0.1c0.1,0.1,0.1,0.3,0.1,0.5c0,0.3-0.1,0.9-0.2,1.7c-0.1,0.3-0.1,0.4-0.1,0.6
			c0,0.1,0,0.1,0,0.1c0.1,0,0.2-0.4,0.6-1c0.4-0.6,0.6-1.2,0.9-1.4c0.3-0.3,0.6-0.4,0.9-0.4c0.2,0,0.4,0.1,0.6,0.4
			c0.1,0.2,0.3,0.6,0.4,1.2c0.1,0.6,0.1,1.1,0.2,1.3c0.1,0.1,0.1,0.2,0.3,0.2c0.1,0,0.2,0,0.3-0.1h0.1c0.1,0,0.1,0.1,0.1,0.2
			c0,0.1-0.1,0.2-0.2,0.4c-0.1,0.1-0.4,0.2-0.6,0.2s-0.4-0.1-0.5-0.3c-0.1-0.2-0.2-0.6-0.3-1.5C131.2,90.7,131,90.2,130.8,90.2z"/>
		<path id="XMLID_1651_" fill="#0C81F6" d="M136.7,91.9c0,0-0.1,0.1-0.3,0.2c-0.2,0.3-0.6,0.6-0.9,0.8c-0.4,0.2-0.7,0.4-1.1,0.4
			c-0.2,0-0.4-0.1-0.6-0.2c-0.1-0.1-0.2-0.4-0.2-0.6c0-0.4,0.1-0.9,0.5-1.4c0.3-0.5,0.8-1,1.4-1.4c0.6-0.4,1.1-0.6,1.5-0.6
			c0.2,0,0.4,0.1,0.6,0.2c0.1,0,0.1,0.1,0.1,0.1c0.1,0,0.1,0.1,0.1,0.2c0.1,0.1,0.1,0.2,0.1,0.3s0,0.1-0.1,0.2
			c-0.1,0.4-0.3,0.9-0.4,1.2c-0.1,0.3-0.1,0.8-0.2,1.5c-0.1,0.6-0.1,1.2-0.2,1.4c-0.1,0.4-0.2,0.6-0.4,1c-0.2,0.3-0.4,0.6-0.7,0.7
			c-0.3,0.1-0.6,0.2-0.9,0.2c-0.5,0-1-0.1-1.5-0.5c-0.5-0.4-0.7-0.6-0.7-0.9c0-0.1,0.1-0.2,0.1-0.2c0.1,0,0.2,0.1,0.4,0.2
			c0.6,0.4,1.2,0.6,1.7,0.6c0.4,0,0.8-0.2,1-0.7c0.2-0.5,0.4-1.2,0.5-2.2C136.6,92.3,136.7,92,136.7,91.9z M136.7,89.7
			c-0.2,0-0.5,0.1-0.9,0.4c-0.4,0.2-0.7,0.6-1,1.1c-0.4,0.4-0.5,0.9-0.5,1.2c0,0.1,0,0.2,0.1,0.3s0.1,0.1,0.2,0.1
			c0.2,0,0.6-0.1,0.9-0.4c0.4-0.2,0.7-0.6,1-1.1c0.3-0.4,0.4-0.8,0.4-1.1C137,89.8,136.9,89.7,136.7,89.7z"/>
	</g>
	<path id="XMLID_410_" fill="#0C81F6" d="M137.6,76.2L137.6,76.2c0-0.1,0-0.1-0.1-0.2c0-0.1-0.1-0.2-0.1-0.4c-0.1-1.2-0.5-1.9-1-2.7
		c-0.9-1.2-2.3-1.7-3.8-1.7c-1.6,0.1-3.1,0.8-4,2c-0.1,0.1-0.1,0.2-0.2,0.3v0.1c-0.8-1.5-2.1-2.3-3.8-2.3l0,0c-1.7,0-3,0.6-4,1.9
		c0-0.1,0-0.3,0-0.4c-0.1-0.4-0.2-0.8-0.5-1s-0.7-0.4-1.1-0.3c-0.8,0.1-1.3,0.7-1.3,1.7c0,3.2,0.1,6.5,0.1,9.5
		c0,0.4,0.1,0.6,0.1,0.9c0.2,0.5,0.7,0.9,1.3,0.9c0.1,0,0.2,0,0.3,0c0.6-0.1,1.2-0.7,1.2-1.4c0-0.9,0-1.9,0-2.9c0-0.8,0-1.5,0-2.3
		c0-0.5,0-0.9,0.1-1.2c0.3-1.5,1.4-2.5,3.2-2.4c1.3,0.1,2.2,1.1,2.2,2.6c0.1,1.2,0.1,2.3,0.1,3.5c0,0.7,0,1.4,0,2.2
		c0,0.4,0.1,0.7,0.1,1c0.2,0.6,0.9,0.9,1.6,0.8c0.7-0.1,1.2-0.7,1.2-1.5c0-0.7,0-1.4,0-2.2c0-0.9,0-1.9,0-3c0-0.6,0.1-1.2,0.2-1.6
		c0.3-1.1,1.1-1.8,2.2-1.9c0.9-0.1,1.9,0,2.5,1.2c0.3,0.5,0.4,1.2,0.4,1.9c0.1,1.2,0.1,2.4,0.1,3.6c0,0.6,0,1.3,0,1.9
		c0,0.8,0.5,1.4,1.2,1.5c0.7,0.1,1.4-0.2,1.7-1c0-0.1,0.1-0.1,0.1-0.1c0,0,0-0.1,0.1-0.1l0,0L137.6,76.2z"/>
	<path id="XMLID_1719_" fill="#0C81F6" d="M88.6,81.6c-0.6,0.2-0.8,0.7-1,1.2l0,0v0.7l0.1,0.1c0.1,0.1,0.1,0.1,0.1,0.2
		c0.3,0.5,0.9,0.8,1.4,0.8c0.3,0,0.6-0.1,0.8-0.2c0.8-0.4,1.1-1.3,0.7-2.1C90.5,81.6,89.4,81.2,88.6,81.6z"/>
	<path id="XMLID_1725_" fill="#0C81F6" d="M109.9,71L109.9,71c-1.9,0-3.6,0.7-4.8,1.9c-1.2,1.2-1.9,2.9-1.8,4.8
		c0,1.9,0.7,3.5,1.9,4.8c1.2,1.2,2.9,1.9,4.7,1.9c0.1,0,0.1,0,0.1,0c1.9,0,3.5-0.7,4.7-1.9c1.2-1.2,1.9-3,1.8-4.8
		C116.4,73.8,113.6,71,109.9,71z M109.9,81.4c-2.2,0-3.7-1.5-3.7-3.8c0-2.1,1.5-3.7,3.6-3.7h0.1c1,0,1.9,0.4,2.6,1
		c0.7,0.6,1.1,1.6,1.1,2.6c0,1.1-0.4,2-1.1,2.7C111.8,81,110.9,81.4,109.9,81.4L109.9,81.4z"/>
	<path id="XMLID_1726_" fill="#0C81F6" d="M101.1,80.9c-0.1,0.1-0.3,0.1-0.4,0.2c-0.2,0.1-0.4,0.2-0.6,0.3c-1.5,0.6-3.2,0.1-4.3-1
		c-0.9-1.1-1.2-2.8-0.6-4.1c0.7-1.4,2.2-2.2,3.8-2c0.5,0.1,1,0.2,1.4,0.4c0.2,0.1,0.5,0.1,0.7,0.2c0.8,0.2,1.4,0,1.7-0.6
		c0.4-0.7,0.1-1.4-0.6-1.9c-2.7-1.9-7.1-1.2-9.1,1.4c-1.7,2.2-1.9,4.7-0.7,7.2c1.1,2.2,3.1,3.5,5.6,3.6l0,0l0,0
		c1.9,0,3.1-0.4,4.2-1.1c0.8-0.5,1-1.3,0.6-2C102.7,80.7,101.9,80.6,101.1,80.9z"/>
	<path id="XMLID_1733_" fill="#0C81F6" d="M63.9,71.3c-0.8,0-1.4,0.6-1.5,1.4l0,0c-0.2-0.1-0.4-0.4-0.6-0.5C60,71,58,70.7,55.9,71.7
		c-1.9,0.8-3.3,2.5-3.8,4.7c-0.4,2.3,0.3,4.7,1.8,6.2c1.3,1.2,3.2,1.9,5.1,1.7c1.4-0.1,2.6-0.7,3.4-1.7c0,0.1,0,0.1,0,0.1
		c0,0.5-0.1,1-0.1,1.5c-0.2,1.4-0.9,2.4-2,2.8c-1.7,0.6-3.3,0.4-4.6-0.9c-0.7-0.7-1.6-0.8-2.2-0.1c-0.6,0.6-0.5,1.4,0.1,2.2
		c1.3,1.4,2.9,2.2,4.8,2.2c0.1,0,0.1,0,0.1,0c2.7,0,4.6-0.9,5.8-2.9c0.7-1.2,1.1-2.7,1.2-4.4s0.1-3.5,0.1-5.1c0-0.5,0-1,0-1.5v-0.5
		c0-1,0-2,0-3.1C65.4,72,64.7,71.4,63.9,71.3z M62,79.6c-0.1,0.1-0.2,0.4-0.4,0.5c-0.7,0.6-2,1.4-3,1.3c-2.1,0-3.5-1.5-3.5-3.7
		c0-1,0.4-1.9,1.1-2.6c0.6-0.6,1.6-1,2.6-1c2.1,0,3.6,1.5,3.5,3.6c0,0.7,0,1.2-0.2,1.7C62.1,79.5,62,79.6,62,79.6z"/>
	<path id="XMLID_1737_" fill="#0C81F6" d="M85.8,73c0-0.1,0-0.3-0.1-0.4c-0.1-0.7-0.8-1.2-1.6-1.2c-0.7,0.1-1.3,0.6-1.4,1.4
		c0,0.1,0,0.1,0,0.1c-1.4-1.4-3.1-1.9-5.2-1.5c-2.3,0.4-4,1.9-4.8,4c-0.8,2.3-0.4,5.1,1.2,6.8c1.2,1.4,3,2.2,4.9,2.2l0,0
		c1.5,0,3-0.6,4-1.7c0,0.1,0,0.1,0,0.2c0.1,0.4,0.3,0.9,0.7,1.1c0.4,0.2,0.8,0.3,1.2,0.1c0.7-0.2,1.1-0.8,1.1-1.5c0-2.7,0-5.5,0-8.2
		L85.8,73z M82.7,77.8c0,1-0.4,1.9-1.1,2.6c-0.6,0.6-1.6,1-2.6,1c-2.1,0-3.5-1.6-3.5-3.8c0-0.9,0.4-1.9,1-2.5c0.6-0.6,1.6-1,2.6-1
		c1,0,1.9,0.4,2.5,1.1C82.3,75.9,82.7,76.9,82.7,77.8z"/>
	<path id="XMLID_1739_" fill="#0C81F6" d="M68.9,71.3c-0.4,0-0.8,0.1-1.1,0.4c-0.3,0.3-0.5,0.7-0.5,1.3c0,3.5,0,6.9,0,9.6
		c0,0.2,0,0.5,0.1,0.8c0.2,0.6,0.8,0.9,1.4,0.9c0.1,0,0.2,0,0.3,0c0.7-0.1,1.2-0.7,1.2-1.4c0-1.2,0-2.4,0-3.6c0-0.4,0-0.9,0-1.2l0,0
		v-0.1c0-0.4,0-0.9,0-1.4c0-1.1,0-2.2,0-3.3C70.5,72,69.9,71.4,68.9,71.3z"/>
	<polygon id="XMLID_1740_" fill="#0C81F6" points="27.3,59 29.9,57.4 32.5,59 32.5,59 31,56.4 32.5,53.7 29.9,55.4 27.3,53.7 
		28.9,56.4 	"/>
	<path id="XMLID_1741_" fill="#0C81F6" d="M18.2,78.1c-3.5-0.6-6-12-6-12C13.1,85,19,84.3,19,84.3c8.2,0,10.9-25.4,10.9-25.4
		C25,73.1,21.6,78.7,18.2,78.1z"/>
	<path id="XMLID_414_" fill="#0C81F6" d="M42.1,78.4c0-1.7,0-3.5,0-5.3c0-0.2,0-0.4-0.1-0.6c-0.1-0.7-0.8-1.2-1.6-1.2
		c-0.7,0.1-1.3,0.6-1.4,1.4c0,0.1,0,0.1,0,0.1l0,0c-0.2-0.2-0.4-0.4-0.6-0.6c-1.2-0.9-2.9-1.2-4.5-0.9c-1.7,0.4-3.3,1.4-4.2,2.7
		c-0.4,0.6-0.6,1.3-0.8,1.9c-0.1,0.6-0.3,1.7-0.1,2.8c0,0.1,0,0.1,0,0.1s0,0.1,0.1,0.3c0.1,0.1,0.1,0.3,0.1,0.4
		c0.5,2,1.7,3.5,3.7,4.3c0.8,0.4,1.6,0.5,2.5,0.5c1.5,0,3-0.5,3.9-1.5c0.1-0.1,0.1-0.1,0.1-0.1c0,0.1,0,0.1,0,0.2
		c0.1,0.5,0.4,0.9,0.9,1.2c0.4,0.2,1,0.2,1.4-0.1c0.6-0.4,0.7-1.1,0.7-1.6C42.1,81.1,42.1,79.8,42.1,78.4z M35.4,81.4L35.4,81.4
		c-2.1,0-3.6-1.6-3.6-3.7c0-1,0.4-1.9,1-2.5s1.6-1,2.6-1s1.9,0.4,2.6,1.1c0.6,0.6,1,1.6,0.9,2.5C39,80,37.5,81.4,35.4,81.4z"/>
	<path id="XMLID_415_" fill="#0C81F6" d="M50.1,71.5c-0.4,0-0.6,0-1,0c-0.1,0-0.2,0-0.4,0c0-0.3,0-0.6,0-0.9c0-0.8,0-1.5,0-2.2
		c0-0.5-0.2-1-0.5-1.3c-0.3-0.3-0.6-0.4-1.1-0.4l0,0c-0.9,0-1.5,0.7-1.5,1.7c0,0.4,0,0.9,0,1.2c0,0.2,0,0.4,0,0.6v1.2
		c-0.1,0-0.1,0-0.2,0c-0.2,0-0.4,0-0.6,0c-0.4,0-0.9,0.1-1.2,0.4c-0.2,0.2-0.4,0.6-0.4,0.9c0,0.7,0.6,1.2,1.5,1.2c0.2,0,0.4,0,0.6,0
		c0.1,0,0.1,0,0.1,0v2.2c0,1.7,0,3.5,0,5.3l0,0l0,0c0,0.3,0,0.6,0,0.9c0,0.1,0,0.2,0,0.3c0.1,0.5,0.4,1,0.8,1.3
		c0.2,0.1,0.4,0.2,0.7,0.2h0.1h0.1c0.2,0,0.5-0.1,0.7-0.2c0.4-0.3,0.7-0.7,0.8-1.3c0-0.1,0-0.2,0-0.3c0-1.9,0-3.8,0-5.6
		c0-0.8,0-1.5,0-2.3V74c0.1,0,0.2,0,0.4,0c0.4,0,0.7,0,1.1,0c0.8,0,1.4-0.6,1.4-1.3C51.5,72,50.9,71.5,50.1,71.5z"/>
</g>
</svg>
