<?xml version="1.0" encoding="UTF-8"?>
<svg id="Layer_2" data-name="Layer 2" xmlns="http://www.w3.org/2000/svg" viewBox="0 0 81.87 49.65">
  <defs>
    <style>
      .cls-1 {
        fill: #0066b2;
      }

      .cls-1, .cls-2, .cls-3, .cls-4 {
        fill-rule: evenodd;
        stroke-width: 0px;
      }

      .cls-2 {
        fill: #fcb813;
      }

      .cls-3 {
        fill: #f6921e;
      }

      .cls-4 {
        fill: #f37920;
      }
    </style>
  </defs>
  <g id="Layer_1-2" data-name="Layer 1">
    <g>
      <path class="cls-2" d="m65.82,0c-1.88,0-2.73.43-3.75,1.54l-2.39,2.64-2.39-2.65c-1.11-1.11-1.88-1.54-3.75-1.54h-2.82s4.35,5.46,4.95,6.06c.94,1.02,1.54,1.53,2.82,1.53h2.3c1.28,0,1.96-.51,2.9-1.53.59-.6,4.95-6.06,4.95-6.06h-2.82Z"/>
      <path class="cls-4" d="m64.29,7.08c-1.36.26-2.13.59-2.82,1.71l-.6.94-.51,1.03c-.68,1.11-.6,1.96-.09,3.33.26.77,2.73,7.26,2.73,7.26l1.45-2.39c.94-1.62.94-2.56.51-4.01l-1.02-3.41,3.42-.77c1.53-.34,2.3-.86,3.24-2.47l1.37-2.48s-6.83,1.11-7.68,1.28Z"/>
      <path class="cls-3" d="m59,10.75l-.6-1.03-.51-.94c-.68-1.11-1.45-1.45-2.82-1.71-.85-.17-7.76-1.28-7.76-1.28l1.45,2.48c.93,1.62,1.7,2.13,3.16,2.47l3.49.77-1.11,3.41c-.42,1.45-.35,2.39.59,4.01l1.37,2.39s2.56-6.49,2.81-7.26c.42-1.37.6-2.22-.08-3.33Z"/>
      <path class="cls-1" d="m27.69,13.9h-2.81c-.51,0-.85.43-.85.85v18.69c0,.51.34.85.85.85h2.81c.51,0,.86-.34.86-.85V14.76c0-.42-.35-.85-.86-.85h0Zm13.82,0v3.5h-4.35v4.61h4.35v3.32h-4.35v5.46h4.35v3.5h-7.93c-.6,0-.94-.34-.94-1.11V14.93c0-.68.34-1.02,1.02-1.02h7.85Zm-21.59,0h-2.47c-.77,0-1.02.34-1.28,1.45-.94,3.93-2.05,10.16-4.27,13.48,0,0-.59.85-1.28.85s-1.2-.85-1.2-.85c-2.22-3.33-3.75-9.55-4.61-13.48-.25-1.11-.51-1.45-1.36-1.45H.99C.3,13.9,0,14.36,0,14.84c0,.11.02.23.05.34.77,4.1,2.14,10.24,5.29,15.61,1.45,2.56,2.81,3.93,5.29,3.93s3.92-1.37,5.38-3.93c3.15-5.37,4.09-11.51,4.86-15.61.17-.59-.08-1.28-.94-1.28h0Zm21.59,20.39h1.87c4.18,0,7.25-1.88,7.25-6.06,0-2.47-1.62-4.43-4.35-5.04q.17-.08.34-.17c1.45-.85,2.64-2.3,2.64-4.18,0-3.58-2.81-4.95-6.91-4.95h-.85v3.5h.17c1.87,0,2.9.68,2.9,2.22,0,1.62-1.2,2.39-2.73,2.39h-.34v3.32h.85c2.04,0,3.5.85,3.5,2.81,0,2.13-1.79,2.64-3.58,2.64h-.77v3.5Z"/>
      <path class="cls-1" d="m8.41,42.49v.42c-1.02.09-1.71.85-1.71,2.13,0,1.11.6,2.05,1.71,2.05v.43h-.08c-1.19,0-2.13-1.03-2.13-2.38,0-1.71,1.11-2.56,2.22-2.65h0ZM.48,47.52v-3.5c0-1.11,0-1.88-.08-2.73h.08c.34.69.77,1.45,1.36,2.22l2.65,4.01h.42v-6.91h-.42v3.5c0,1.03,0,1.79.09,2.73l-.09.09c-.34-.68-.69-1.37-1.28-2.22l-2.73-4.1H.05v6.91h.43Zm7.93,2.13c.51,0,1.11-.17,1.53-.6.43-.34.69-.94.69-2.22v-4.18h-.43l-.09.78h0c-.17-.35-.68-.94-1.62-.94h-.08v.42h.08c.86,0,1.37.52,1.54,1.11.08.17.08.34.08.52v.93c0,.17,0,.43-.08.52-.26.76-.85,1.11-1.54,1.11h-.08v.43c.85,0,1.45-.43,1.7-.94v.69c0,1.45-.68,1.96-1.7,2.04v.34h0Zm5.21-5.03v.34c-.68.18-1.28.51-1.28,1.28,0,.68.51,1.02,1.02,1.02h.25v.34c-.08,0-.17.09-.34.09-.93,0-1.45-.77-1.45-1.37,0-.94.6-1.53,1.79-1.71h0Zm0-2.13v.42c-.43,0-.94.09-1.28.34l-.17-.34c.51-.26,1.02-.42,1.45-.42h0Zm0-1.96v.51l-.51.85h-.51l.94-1.36h.08Zm11.26,6.99h.43v-2.98c0-.17.08-.34.08-.52.25-.59.85-1.11,1.54-1.11,1.02,0,1.37.85,1.37,1.71v2.9h.51v-2.98c0-1.79-1.28-2.05-1.79-2.05-.34,0-.68.08-.94.34-.34.17-.6.43-.68.68h-.08v-3.24h-.43v7.25h0Zm-7.85,0h.43v-2.98c0-.17.09-.34.09-.52.26-.59.77-1.11,1.54-1.11,1.02,0,1.36.85,1.36,1.71v2.9h.51v-2.9c0-1.88-1.28-2.13-1.79-2.13-.76,0-1.45.51-1.71,1.02h0l-.08-.86h-.43c0,.34.09.68.09,1.11v3.75h0Zm-3.41-6.48l.08-.17h.08l.6,1.02h.51l-1.02-1.36h-.25v.51h0Zm0,6.57h0c.6-.09,1.11-.43,1.28-.77l.09.68h.42v-3.07c0-.85-.34-1.96-1.7-1.96h-.08v.42c1.19,0,1.28.94,1.28,1.45v.17c-.51,0-.94,0-1.28.08v.34c.43-.08.85-.08,1.28-.08v1.11c0,.08,0,.17-.08.25-.17.43-.51.85-1.19,1.02v.34h0Zm18.17-2.99v.34c-.77.18-1.28.51-1.28,1.28,0,.68.43,1.02,1.02,1.02h.26v.34c-.17,0-.26.09-.34.09-1.02,0-1.45-.77-1.45-1.37,0-.94.6-1.53,1.79-1.71h0Zm0-2.13v.42h-.09c-.43,0-.85.09-1.19.34l-.17-.34c.43-.26.94-.42,1.45-.42h0Zm0-1.2v.6l-1.28-1.36h.77l.51.76h0Zm3.33,6.23h.51v-2.98c0-.17,0-.34.09-.52.17-.59.77-1.11,1.45-1.11,1.02,0,1.37.85,1.37,1.71v2.9h.51v-2.9c0-1.88-1.28-2.13-1.7-2.13-.86,0-1.45.51-1.71,1.02h-.08v-.86h-.43v4.87h0Zm-3.33-5.63h.34l-.34-.6v.6h0Zm0,5.72h0c.6-.09,1.02-.43,1.28-.77l.09.68h.42c-.09-.34-.09-.77-.09-1.11v-1.96c0-.85-.25-1.96-1.71-1.96v.42c1.11,0,1.19.94,1.19,1.45v.17c-.42,0-.85,0-1.19.08v.34c.34-.08.85-.08,1.19-.08v1.37c-.17.43-.6.85-1.19,1.02v.34h0Zm10.67-5.12v.42c-1.02.09-1.71.85-1.71,2.13,0,1.11.6,2.05,1.71,2.05v.43c-1.28,0-2.14-1.03-2.14-2.38,0-1.71,1.11-2.56,2.14-2.65h0Zm0,7.16c.51,0,1.11-.17,1.54-.6.42-.34.68-.94.68-2.22v-4.18h-.42v.78h0c-.25-.35-.77-.94-1.71-.94h-.08v.42h.08c.85,0,1.37.52,1.54,1.11.09.17.09.34.09.52v.93c0,.17,0,.43-.09.52-.25.76-.85,1.11-1.54,1.11h-.08v.43c.85,0,1.45-.43,1.71-.94v.69c0,1.45-.69,1.96-1.71,2.04v.34h0Zm8.79-9.12v.43c-1.71,0-2.56,1.62-2.56,3.24,0,1.54.94,3.07,2.56,3.07h0v.43c-1.71-.09-3.08-1.28-3.08-3.5s1.36-3.67,3.08-3.67h0Zm8.19,2.13h-.51v2.99c0,.26,0,.43-.08.6-.17.51-.77.94-1.45.94-1.02,0-1.36-.77-1.36-1.79v-2.73h-.43v2.81c0,1.88,1.03,2.22,1.62,2.22.94,0,1.54-.6,1.7-1.02h.09v.85h.43v-4.87h0Zm-8.19,5.04h0c.17,0,.25,0,.42.09.69.17,1.71.43,2.65.68l.08-.51c-.59-.09-1.45-.26-2.22-.43v-.09c1.28-.34,2.22-1.54,2.22-3.41,0-2.13-1.28-3.49-3.07-3.49h-.08v.43h.08c1.71,0,2.56,1.62,2.56,3.07,0,1.71-.94,3.24-2.64,3.24v.43h0Zm11.77-5.2v.42c-1.28,0-1.79,1.11-1.79,2.22,0,1.19.76,2.13,1.79,2.13h0v.43c-1.28,0-2.3-1.02-2.3-2.56,0-1.71,1.11-2.65,2.3-2.65h0Zm0-1.96v.43l-.51.94h-.43l.77-1.36h.17Zm1.02,2.21h0c-.25-.17-.59-.25-1.02-.25v.42h0c.43,0,.77.09,1.02.34v-.51h0Zm0-1.02l-.77-1.19h-.26v.43-.09h.09l.6,1.02h.34v-.17h0Zm0-.94v.17h-.09l.09-.17h0Zm10.41,6.74h.51v-6.48h2.3v-.43h-5.12v.43h2.3v6.48h0Zm-4.52-.6c-.26.17-.6.25-1.2.25-1.19,0-2.05-.77-2.05-2.04,0-1.2.68-2.22,2.05-2.22.6,0,.94.17,1.2.34l.17-.43c-.17-.17-.68-.34-1.28-.34-1.54,0-2.56,1.11-2.56,2.65,0,1.44.94,2.56,2.39,2.56.68,0,1.2-.26,1.45-.34l-.17-.42h0Zm-5.89-5.97v-.17l.52-1.02h.68l-.94,1.2h-.26Zm0,.94v-.17l.09.17h-.09Zm0,5.54v-.51c.52-.43.85-1.03.85-1.88,0-.6-.26-1.37-.85-1.79v-.51c.85.34,1.37,1.2,1.37,2.3,0,1.28-.6,2.05-1.37,2.39h0Zm15.62-4.95v.42c-1.11.09-1.53,1.03-1.62,1.71h1.62v.43h-1.62c0,1.37.68,2.05,1.62,2.13v.43c-1.36-.09-2.13-1.11-2.13-2.47,0-1.54.85-2.56,2.13-2.65h0Zm0-1.96v.6l-.43.77h-.51l.85-1.36h.09Zm1.11,4.09h-1.11v.43h1.11v-.43h0Zm0-1.88h0c-.25-.17-.6-.25-1.02-.25h-.08v.42h.08c.42,0,.77.17,1.02.43v-.6h0Zm0-1.02l-.77-1.19h-.34v.6l.08-.26h.09l.51,1.02h.43v-.17h0Zm0-.94v.17h-.17l.17-.17h0Zm0,.17v-.17l.51-1.02h.6l-.85,1.2h-.26Zm0,.94v-.17l.08.17h-.08Zm0,3.15v-.43h.43c0-.43-.08-.94-.43-1.28v-.6c.77.43.94,1.45.94,1.97v.34h-.94Z"/>
      <path class="cls-1" d="m81.26,39.75l-.68,1.2h.43l.85-1.2h-.6Zm-1.71.77h.43l.85,1.36h-.51l-.51-1.02h-.09l-.51,1.02h-.51l.85-1.36h0Zm-1.53,4.09c.08-.77.59-1.71,1.7-1.71,1.19,0,1.45,1.03,1.45,1.71h-3.15Zm3.66.43v-.34c0-.69-.26-2.22-1.96-2.22-1.28,0-2.22,1.02-2.22,2.65,0,1.44.94,2.56,2.3,2.56.94,0,1.45-.26,1.62-.34l-.17-.42c-.25.17-.59.25-1.36.25-1.02,0-1.87-.6-1.87-2.13h3.66Zm-7.25,2.48h.51v-6.48h2.3v-.43h-5.12v.43h2.3v6.48h0Zm-4.52-.6c-.26.17-.6.25-1.2.25-1.19,0-2.05-.77-2.05-2.04,0-1.2.68-2.22,2.05-2.22.6,0,.94.17,1.2.34l.17-.43c-.17-.17-.68-.34-1.28-.34-1.54,0-2.56,1.11-2.56,2.65,0,1.44.94,2.56,2.39,2.56.68,0,1.2-.26,1.45-.34l-.17-.42h0Zm-5.38-7.17l-.6,1.2h.34l.94-1.2h-.68Zm-1.71.77h.42l.85,1.36h-.42l-.6-1.02h-.09l-.51,1.02h-.43l.77-1.36h0Zm.17,2.39c1.37,0,1.88,1.28,1.88,2.13,0,1.28-.85,2.22-1.88,2.22s-1.79-.94-1.79-2.13c0-1.12.51-2.22,1.79-2.22h0Zm0-.42c-1.2,0-2.3.94-2.3,2.65,0,1.54,1.03,2.56,2.3,2.56,1.11,0,2.39-.86,2.39-2.65,0-1.53-.94-2.55-2.39-2.55h0Zm-3.58.17h-.51v2.99c0,.26,0,.43-.08.6-.17.51-.77.94-1.45.94-1.02,0-1.36-.77-1.36-1.79v-2.73h-.43v2.81c0,1.88,1.03,2.22,1.62,2.22.94,0,1.54-.6,1.7-1.02h.09v.85h.43v-4.87h0Zm-8.19,4.61c-1.62,0-2.56-1.54-2.56-3.07,0-1.62.85-3.24,2.65-3.24s2.56,1.62,2.56,3.07c0,1.71-.94,3.24-2.64,3.24h0Zm3.15.69c-.59-.09-1.45-.26-2.22-.43v-.09c1.28-.34,2.22-1.54,2.22-3.41,0-2.13-1.28-3.49-3.07-3.49s-3.16,1.36-3.16,3.67,1.36,3.41,3.08,3.5c.17,0,.25,0,.42.09.69.17,1.71.43,2.65.68l.08-.51h0Zm-10.23-2.48c0,.17,0,.43-.09.52-.25.76-.85,1.11-1.54,1.11-1.19,0-1.79-.94-1.79-2.05,0-1.28.77-2.13,1.79-2.13.85,0,1.37.52,1.54,1.11.09.17.09.34.09.52v.93h0Zm.51-1.62v-1.2h-.42v.78c-.25-.35-.77-.94-1.71-.94-1.11,0-2.22.94-2.22,2.65,0,1.36.85,2.38,2.14,2.38.85,0,1.45-.43,1.71-.94h0v.69c0,1.45-.77,2.04-1.79,2.04-.68,0-1.11-.25-1.45-.42l-.17.34c.34.34.94.42,1.54.42s1.28-.17,1.71-.6c.42-.34.68-.94.68-2.22v-2.98h0Zm-9.55,3.67h.51v-2.98c0-.17,0-.34.09-.52.17-.59.77-1.11,1.45-1.11,1.02,0,1.37.85,1.37,1.71v2.9h.51v-2.9c0-1.88-1.28-2.13-1.7-2.13-.86,0-1.45.51-1.71,1.02h-.08v-.86h-.43v4.87h0Zm-2.14-1.53v.25c-.17.51-.68,1.02-1.45,1.02-.59,0-1.02-.34-1.02-1.02,0-1.2,1.45-1.37,2.47-1.37v1.11h0Zm.51-1.54c0-.85-.25-1.96-1.71-1.96-.43,0-1.02.17-1.45.42l.17.34c.34-.26.77-.34,1.19-.34,1.2,0,1.28.94,1.28,1.45v.17c-1.96-.09-2.98.6-2.98,1.79,0,.6.43,1.37,1.45,1.37.77,0,1.37-.51,1.62-.86h0l.09.68h.42c-.09-.34-.09-.77-.09-1.11v-1.96h0Zm-2.98-3.92l1.28,1.36h.34l-.85-1.36h-.77Zm-5.63,6.99h.43v-2.98c0-.17.08-.34.08-.52.25-.59.85-1.11,1.54-1.11,1.02,0,1.37.85,1.37,1.71v2.9h.51v-2.98c0-1.79-1.28-2.05-1.79-2.05-.34,0-.68.08-.94.34-.34.17-.6.43-.68.68h-.08v-3.24h-.43v7.25h0Zm-7.85,0h.43v-2.98c0-.17.09-.34.09-.52.26-.59.77-1.11,1.54-1.11,1.02,0,1.36.85,1.36,1.71v2.9h.51v-2.9c0-1.88-1.28-2.13-1.79-2.13-.76,0-1.45.51-1.71,1.02h0l-.08-.86h-.43c0,.34.09.68.09,1.11v3.75h0Zm-2.13-1.53c0,.08,0,.17-.08.25-.17.51-.6,1.02-1.45,1.02-.51,0-1.02-.34-1.02-1.02,0-1.2,1.44-1.37,2.56-1.37v1.11h0Zm.51-1.54c0-.85-.34-1.96-1.7-1.96-.51,0-1.02.17-1.53.42l.17.34c.34-.26.85-.34,1.28-.34,1.19,0,1.28.94,1.28,1.45v.17c-2.05-.09-3.07.6-3.07,1.79,0,.6.52,1.37,1.45,1.37.86,0,1.37-.51,1.62-.86h0l.09.68h.42v-3.07h0Zm-1.87-3.92l-.94,1.36h.51l.6-1.02h.08l.6,1.02h.51l-1.02-1.36h-.34Zm-3.42,4.94c0,.17,0,.43-.08.52-.26.76-.85,1.11-1.54,1.11-1.19,0-1.79-.94-1.79-2.05,0-1.28.77-2.13,1.79-2.13.86,0,1.37.52,1.54,1.11.08.17.08.34.08.52v.93h0Zm.52-1.62v-1.2h-.43l-.09.78c-.17-.35-.68-.94-1.62-.94-1.11,0-2.3.94-2.3,2.65,0,1.36.94,2.38,2.13,2.38.94,0,1.54-.43,1.79-.94h0v.69c0,1.45-.76,2.04-1.79,2.04-.68,0-1.19-.25-1.54-.42l-.17.34c.43.34,1.03.42,1.62.42.51,0,1.2-.17,1.71-.6.43-.34.69-.94.69-2.22v-2.98h0ZM.48,47.52v-3.5c0-1.11,0-1.88-.08-2.73h.08c.34.69.77,1.45,1.36,2.22l2.65,4.01h.42v-6.91h-.42v3.5c0,1.03,0,1.79.09,2.73l-.09.09c-.34-.68-.69-1.37-1.28-2.22l-2.73-4.1H.05v6.91h.43Z"/>
    </g>
  </g>
</svg>