<?xml version="1.0" encoding="UTF-8"?>
<svg id="Layer_2" data-name="Layer 2" xmlns="http://www.w3.org/2000/svg" viewBox="0 0 123.34 39.44">
  <defs>
    <style>
      .cls-1 {
        fill: #ed1c24;
        fill-rule: evenodd;
      }

      .cls-1, .cls-2, .cls-3 {
        stroke-width: 0px;
      }

      .cls-2 {
        fill: #009edb;
      }

      .cls-3 {
        fill: #005aaa;
      }
    </style>
  </defs>
  <g id="Layer_1-2" data-name="Layer 1">
    <path class="cls-2" d="m15.78,34.87c.63,0,1.1-.11,1.41-.33.31-.22.51-.55.61-1,.06-.28.03-.52-.1-.72-.12-.2-.4-.43-.82-.72l-1.69-1.16c-.38-.27-.67-.54-.87-.82-.2-.28-.32-.57-.35-.88-.04-.31-.02-.64.06-.99.18-.87.61-1.55,1.28-2.04.67-.5,1.63-.75,2.88-.75.49,0,.95.06,1.4.18.44.12.78.25,1,.39.1.06.16.12.21.18.04.06.05.13.04.22l-.22,1c-.05.24-.19.31-.42.22-.24-.1-.6-.2-1.08-.29-.48-.1-.91-.14-1.29-.14-1.03,0-1.61.34-1.76,1.03-.05.24-.02.44.11.6.13.16.4.39.81.67l1.54,1.05c.45.31.79.61,1.01.92.22.31.36.62.4.95.05.32.03.69-.06,1.11-.11.54-.34,1.04-.69,1.5-.34.46-.83.84-1.46,1.13-.63.29-1.39.44-2.29.44-.6,0-1.14-.07-1.61-.21-.47-.14-.79-.27-.96-.38-.12-.08-.2-.14-.23-.19-.03-.05-.04-.11-.02-.2l.21-1c.05-.22.19-.3.42-.22.89.31,1.72.46,2.5.46"/>
    <path class="cls-2" d="m24.12,34.97c.55,0,1.2-.11,1.96-.34.22-.06.31.02.26.24l-.19.94c-.02.09-.06.16-.12.22-.06.06-.15.11-.27.16-.56.28-1.22.42-1.98.42-.65,0-1.21-.12-1.66-.37-.45-.25-.76-.64-.94-1.17-.17-.53-.18-1.21,0-2.03l.29-1.37c.17-.8.45-1.47.85-2,.4-.54.88-.93,1.44-1.18.56-.25,1.17-.38,1.82-.38.76,0,1.36.14,1.8.42.1.05.17.11.2.16.04.06.04.13.02.22l-.2.94c-.05.21-.17.29-.36.24-.3-.1-.58-.19-.82-.25-.25-.06-.56-.09-.93-.09-.99,0-1.62.64-1.89,1.92l-.29,1.37c-.14.69-.11,1.19.09,1.48.21.29.51.44.91.44"/>
    <path class="cls-2" d="m31.79,29.73c-.77,0-1.58.13-2.42.38-.22.06-.31-.02-.26-.24l.19-.9c.02-.09.06-.16.12-.22.06-.06.15-.11.28-.16.32-.13.72-.24,1.18-.34.46-.1.96-.14,1.48-.14.63,0,1.15.1,1.55.31.4.21.68.52.83.95.15.43.16.94.03,1.55l-1.07,5c-.02.1-.05.18-.08.22-.03.04-.1.08-.19.1-.46.12-.9.21-1.32.27-.42.06-.93.09-1.52.09-.8,0-1.44-.08-1.91-.25-.47-.17-.79-.43-.96-.79-.17-.36-.19-.84-.06-1.42v-.07c.11-.43.25-.81.44-1.11.19-.31.44-.56.76-.77.32-.21.71-.37,1.17-.47.46-.1,1.01-.15,1.66-.15h1.03l.14-.65c.1-.46.06-.77-.11-.94-.17-.17-.48-.25-.94-.25m.17,5.3l.46-2.17h-1.03c-.44,0-.78.04-1.01.12-.23.08-.4.2-.5.37-.1.16-.19.4-.25.69l-.02.09c-.06.28-.06.49,0,.63.06.15.18.25.38.31.2.06.5.09.91.09s.77-.04,1.06-.12"/>
    <path class="cls-2" d="m42.08,36.19c-.01.08-.06.15-.13.21-.07.06-.15.1-.23.1h-1.36c-.08,0-.14-.03-.18-.1-.04-.06-.05-.14-.04-.21l1.03-4.85c.08-.39.1-.7.06-.92-.04-.23-.16-.4-.35-.5-.19-.1-.47-.16-.85-.16-.45,0-.94.05-1.48.16l-1.33,6.27c-.01.09-.06.16-.13.22-.07.06-.15.09-.23.09h-1.35c-.09,0-.15-.03-.19-.1-.04-.06-.05-.14-.04-.21l1.56-7.34c.03-.14.15-.24.36-.29.52-.13,1.06-.24,1.64-.32.58-.08,1.11-.12,1.59-.12,1.15,0,1.94.25,2.37.76.43.51.53,1.33.3,2.45l-1.04,4.86Z"/>
    <path class="cls-2" d="m52.16,36.25c-.03.15-.14.24-.33.26-.42.07-.82.1-1.18.1-.58,0-1.03-.06-1.33-.18-.31-.12-.5-.34-.59-.68-.09-.33-.06-.83.08-1.48l.98-4.61-1.17-.21c-.19-.03-.27-.13-.24-.29l.14-.66c.01-.08.05-.15.12-.21.07-.06.14-.09.23-.09h1.22l.26-1.2c.03-.16.15-.26.36-.29l1.41-.24h.06c.15,0,.21.07.18.22l-.32,1.51h1.48c.09,0,.16.03.2.08.04.05.06.12.04.21l-.19.87c-.02.08-.06.15-.13.21-.07.06-.15.09-.23.09h-1.48l-.98,4.61c-.08.36-.09.59-.05.68.04.09.19.14.45.14h.94c.21,0,.29.07.26.22l-.2.92Z"/>
    <path class="cls-2" d="m60.74,32.96c-.15.7-.42,1.33-.81,1.89-.39.56-.88.99-1.47,1.31-.59.31-1.26.47-2.01.47s-1.34-.16-1.81-.47c-.47-.31-.77-.75-.92-1.31-.15-.56-.15-1.19,0-1.89l.25-1.18c.15-.7.42-1.33.8-1.89.39-.56.88-.99,1.48-1.31.6-.31,1.27-.47,2.01-.47s1.36.16,1.81.47c.46.31.76.75.91,1.31.15.56.15,1.19,0,1.89l-.25,1.18Zm-1.94,0l.25-1.18c.13-.61.1-1.1-.1-1.45-.19-.36-.55-.53-1.06-.53s-.93.18-1.28.53c-.35.36-.58.84-.71,1.45l-.25,1.18c-.13.61-.1,1.1.1,1.45.2.36.54.53,1.05.53s.93-.18,1.28-.53c.35-.36.59-.84.72-1.45"/>
    <path class="cls-2" d="m74.37,28.99c-.25,1.21-.83,2.09-1.73,2.63-.9.54-1.98.81-3.24.81-.07,0-.24,0-.5-.02-.26-.01-.43-.02-.51-.02-.08,0-.17,0-.28-.01l-.81,3.83c-.02.09-.06.16-.13.21-.07.05-.14.08-.21.08h-1.47c-.07,0-.13-.03-.18-.09-.05-.06-.06-.13-.05-.21l2.14-10.1c.03-.14.09-.24.18-.31.09-.06.22-.11.38-.13.83-.13,1.8-.19,2.92-.19,1.26,0,2.23.26,2.89.79.67.53.87,1.39.61,2.6l-.03.13Zm-2.03,0l.03-.13c.13-.61.04-1.05-.25-1.31-.3-.26-.83-.39-1.58-.39-.47,0-.91.02-1.32.06l-.75,3.49c.47.03.9.04,1.3.04.53,0,.96-.06,1.31-.19.35-.13.62-.32.83-.58.21-.26.35-.59.44-1"/>
    <path class="cls-2" d="m77.57,29.73c-.77,0-1.58.13-2.42.38-.22.06-.31-.02-.26-.24l.19-.9c.02-.09.06-.16.12-.22.06-.06.15-.11.28-.16.32-.13.72-.24,1.18-.34.46-.1.96-.14,1.48-.14.63,0,1.15.1,1.55.31.4.21.68.52.83.95.15.43.16.94.03,1.55l-1.07,5c-.02.1-.05.18-.08.22-.03.04-.1.08-.19.1-.46.12-.9.21-1.32.27-.42.06-.93.09-1.52.09-.8,0-1.44-.08-1.92-.25-.47-.17-.79-.43-.96-.79-.17-.36-.19-.84-.06-1.42v-.07c.11-.43.25-.81.44-1.11.19-.31.44-.56.76-.77.32-.21.71-.37,1.17-.47.46-.1,1.01-.15,1.65-.15h1.03l.14-.65c.1-.46.06-.77-.11-.94-.17-.17-.48-.25-.94-.25m.17,5.3l.46-2.17h-1.03c-.44,0-.78.04-1.01.12-.23.08-.4.2-.5.37-.1.16-.18.4-.25.69l-.02.09c-.06.28-.06.49,0,.63.06.15.18.25.38.31.2.06.5.09.91.09s.77-.04,1.06-.12"/>
    <path class="cls-2" d="m89.71,28.47s-.02.07-.04.09l-4.28,8.58c-.28.57-.56,1.02-.84,1.35-.28.32-.63.57-1.04.72-.41.16-.95.24-1.6.24-.25,0-.52-.02-.82-.06-.3-.04-.53-.08-.69-.14-.2-.05-.28-.14-.26-.25l.2-.94c.01-.07.06-.13.13-.19.07-.05.14-.08.23-.08h.03c.13,0,.4.02.81.05.41.03.69.04.83.04.21,0,.4-.03.56-.08.16-.05.3-.15.43-.28s.25-.33.38-.58l.21-.44h-.21c-.17,0-.32-.03-.46-.08-.14-.05-.26-.17-.37-.35-.1-.18-.17-.44-.2-.79l-.49-6.73s0-.06,0-.1c.03-.16.14-.24.33-.24h1.48c.07,0,.12.03.16.08.04.05.06.11.06.19l.22,5.97c0,.21.04.32.13.32h.14l2.92-6.31c.07-.17.19-.25.35-.25h1.5c.07,0,.12.02.17.08.04.05.06.11.04.18"/>
    <path class="cls-1" d="m0,.16h6.94l5.79,15.95,4.95-13.23c.09-.52.02-.67-.2-1.12-.26-.54-.55-1.07-.84-1.59h5.17c-.29,1.07-.75,2.25-1.13,3.35l-6.69,18.59c-1.82-.35-3.84-1.04-5.42-2.48-1.18-1.07-1.61-2.28-2.19-3.75L.78,1.73C.57,1.15.29.66,0,.16m27.63,7.47v11.41c0,.46.12.54.43.92l1.35,1.7h-6.51c.35-.55.72-1.09,1.1-1.61.28-.44.4-.61.4-1.12V2.99l-1.84-2.83h6.75l10.93,13.47V2.88c0-.52-.09-.67-.38-1.12-.35-.54-.73-1.07-1.12-1.59h6.51l-1.35,1.7c-.31.37-.4.46-.4.92v19.4c-2.48-.32-4.79-.89-6.81-3.4l-9.06-11.16Z"/>
    <path class="cls-3" d="m47.9,18.37V3.66c0-.91-.11-1.6-.31-2.06-.21-.46-.58-.89-1.1-1.28v-.06h9.64c1.84,0,3.3.32,4.37.97,1.07.65,1.8,1.41,2.19,2.28.39.88.58,1.73.58,2.57,0,3.43-2,5.52-6,6.3l-2.07.19c-.6-.08-1-.13-1.21-.13,2.14-.89,3.21-2.5,3.21-4.84,0-2.79-1.14-4.19-3.42-4.19v14.22c0,1.82.5,3.11,1.49,3.87v.13h-8.79v-.06c.94-.62,1.42-1.69,1.42-3.19"/>
    <path class="cls-3" d="m63.29,16.76l4.45-12.62c.28-.85.42-1.49.42-1.93,0-.7-.4-1.33-1.2-1.89v-.06h8.02l6.4,16.98c.36,1.08.73,1.9,1.1,2.47.37.57.9,1.17,1.6,1.79v.13h-9.98v-.13c.9-.5,1.35-1.11,1.35-1.85,0-.45-.09-.92-.26-1.39l-1.03-3.09h-6.54l-.96,2.72c-.21.62-.36,1.23-.45,1.82,0,.31.1.61.31.9.2.3.5.59.9.89v.13h-6.74v-.13c.69-.57,1.2-1.19,1.53-1.85.16-.34.33-.73.49-1.17.17-.44.37-1.01.6-1.71m5.28-4.64h4.51s-2.31-6.48-2.31-6.48l-2.2,6.48Z"/>
    <path class="cls-3" d="m87.82,11.91l-6.22-9.24c-.4-.59-.79-1.09-1.17-1.51-.32-.31-.68-.59-1.08-.84v-.06h7.96l4.87,7.73,2.76-3.93c.27-.39.48-.85.64-1.36.11-.37.14-.69.11-.95-.06-.59-.44-1.07-1.12-1.43v-.06h7.56l-8.15,11.64v5.45c0,.23,0,.45.02.67.02.21.03.4.04.55.01.21.09.57.23,1.08.16.68.57,1.29,1.22,1.84v.13h-9.1v-.13c.95-.47,1.43-1.49,1.43-3.06v-6.53Z"/>
    <path class="cls-1" d="m101.97,5.31c0-.47.07-.94.19-1.39.14-.44.32-.88.58-1.3.47-.8,1.16-1.44,2.04-1.92.89-.47,1.92-.71,3.11-.71.48,0,.94.05,1.35.17.42.12.83.3,1.26.54.78.45,1.4,1.09,1.85,1.92.23.44.41.89.54,1.35.12.47.18.98.18,1.53,0,.75-.16,1.53-.49,2.32-.33.79-.81,1.47-1.42,2.01l.77.74c.31.29.63.56.98.82.35.26.73.47,1.15.66.42.2.86.31,1.32.35-.4.33-.83.59-1.27.77-.45.18-.91.26-1.4.26-.41,0-.83-.08-1.25-.26-.43-.17-.83-.39-1.2-.65-.4-.27-.76-.55-1.08-.81l-.86-.72c-.06,0-.14,0-.23,0-.1,0-.21.02-.35.04l-.51.05c-.99,0-1.88-.26-2.68-.77s-1.43-1.21-1.88-2.09c-.22-.44-.39-.89-.5-1.38-.11-.5-.17-1-.17-1.53m3.04.03c0,.34.04.69.12,1.05.06.26.15.58.29.97.21.62.52,1.13.92,1.52.4.4.89.59,1.48.59.76,0,1.32-.3,1.68-.9.36-.6.55-1.37.55-2.31,0-.24-.03-.63-.08-1.16-.05-.39-.13-.75-.22-1.07-.09-.34-.2-.63-.32-.89-.22-.51-.52-.89-.92-1.15-.38-.26-.84-.39-1.36-.39-.24,0-.47.04-.68.14-.2.08-.4.21-.57.38-.32.3-.55.69-.69,1.17-.14.47-.22.99-.22,1.55v.51Zm12.06.11c.34-.05.64-.17.89-.35.26-.18.47-.42.62-.71.08-.14.13-.29.17-.44.04-.15.05-.31.05-.47,0-.49-.13-.89-.4-1.23-.26-.32-.67-.49-1.21-.49h-.13v3.67Zm0,.85v2.98c0,.74.23,1.25.69,1.51v.07h-4.33v-.07c.44-.25.66-.74.66-1.49V2.01c0-.44-.04-.8-.12-1.05-.08-.25-.26-.48-.54-.68v-.03h5.25c.58,0,1.11.1,1.58.32.46.22.83.53,1.1.97.14.21.24.45.31.71.07.25.11.54.11.83,0,.4-.13.83-.39,1.3-.26.46-.75.89-1.5,1.25l2.08,3.51c.5.76.95,1.3,1.35,1.62l-1.83.14h-.46s-.43.01-.43.01c-.41,0-.74-.07-.98-.21-.23-.14-.46-.41-.66-.8l-1.92-3.61Z"/>
  </g>
</svg>