<?xml version="1.0" encoding="utf-8"?>
<!-- Generator: Adobe Illustrator 27.8.1, SVG Export Plug-In . SVG Version: 6.00 Build 0)  -->
<svg version="1.2" baseProfile="tiny" id="Layer_1" xmlns="http://www.w3.org/2000/svg" xmlns:xlink="http://www.w3.org/1999/xlink"
	 x="0px" y="0px" viewBox="0 0 150 150" overflow="visible" xml:space="preserve">
<path id="Path_5" fill="none" stroke="#1E82C8" stroke-width="0.155" d="M45.7,121l-6.1-12.2h3.1l4.3,8.6h0l4.1-8.6h3.2L48.5,121
	H45.7z"/>
<path id="Path_3" fill="#1265B6" d="M103.3,55.8c0.3,1.8,0.4,3.8,0.4,5.6c0,16.7-13.3,30.3-29.8,30.7c0,0,9.1-4.1,19-17.2
	C102.5,62.2,103.3,55.8,103.3,55.8z"/>
<path id="Path_6" fill="#1265B6" stroke="#1E82C8" stroke-width="0.155" d="M62.3,108.8l7.4,8.2h0l0-8.2h2.9V121h-3.1l-7.7-8.4h0
	v8.4h-2.9v-12.2H62.3z"/>
<path id="Path_4" fill-rule="evenodd" fill="#1265B6" d="M103.4,29.9c3.1,2.6,3.1,7.9-1,18.9c-5.2,13.9-17.6,27.4-23.8,33.8
	c-7,7.2-20.5,16.8-26.1,13.4c-5.1-3.1-1.5-12.5-1.2-13.5C54.2,74,61.7,63,62.7,55.6c1.1-8-1.5-10-3.7-11.2c-1.3-0.7-7.7-2.7-13,8
	c-5.2,10.7-0.5,22.3-0.5,22.3c-1.9-4-3-8.6-3-13.4c0-17,13.7-30.7,30.6-30.7c5.2,0,10.2,1.3,14.5,3.7
	C87.7,34.4,98.9,26.3,103.4,29.9z M100.3,33.1c-2.9-3.1-10.8,2.5-10.8,2.5c3.6,2.3,6.7,5.4,9.1,9C98.6,44.6,103,36,100.3,33.1z
	 M45.7,121l-6.1-12.2h3.1l4.3,8.6h0l4.1-8.6h3.2L48.5,121H45.7z"/>
<path id="Path_8" fill="#1265B6" stroke="#1E82C8" stroke-width="0.155" d="M95.8,111.4v-2.6h12.8v2.6h-5v9.6h-3.1v-9.6H95.8z"/>
<path id="Path_7" fill-rule="evenodd" fill="#1265B6" stroke="#1E82C8" stroke-width="0.155" d="M87.9,108.8c0.8,0,1.6,0.1,2.1,0.3
	c0.6,0.2,1.1,0.5,1.5,0.9c0.4,0.4,0.7,0.8,0.8,1.3c0.2,0.5,0.3,1,0.3,1.5c0,0.5-0.1,1-0.3,1.4c-0.2,0.5-0.5,0.9-0.8,1.3
	c-0.4,0.4-0.9,0.7-1.5,0.9c-0.6,0.2-1.3,0.3-2.2,0.3h-4.9v4.4h-3.1v-12.2H87.9z M87,114.6c0.4,0,0.7,0,1-0.1c0.3,0,0.6-0.1,0.9-0.3
	c0.2-0.1,0.4-0.3,0.6-0.6c0.2-0.2,0.2-0.6,0.2-0.9c0-0.4-0.1-0.7-0.2-0.9c-0.2-0.2-0.4-0.4-0.6-0.6c-0.2-0.1-0.5-0.2-0.9-0.3
	c-0.3,0-0.7-0.1-1-0.1h-4.1v3.7H87z"/>
</svg>
